<svg width="178" height="144" viewBox="0 0 178 144" fill="none" xmlns="http://www.w3.org/2000/svg">
<g filter="url(#filter0_d_145_549)">
<g clip-path="url(#clip0_145_549)">
<path d="M245.196 112.548C240.918 101.239 232.832 91.3921 223.988 82.2371C208.867 66.6199 201.733 55.7725 197.169 36.0011C184.139 -20.4669 111.383 -52.8553 43.1933 -40.3154C-37.8363 -25.4676 -67.8894 44.2327 -30.7033 101.162C7.90932 160.246 94.0746 191.327 174.058 188.864C175.199 188.864 176.15 188.634 177.196 188.48C193.175 189.173 208.772 186.479 223.131 176.863C245.768 161.785 253.661 135.013 245.196 112.548Z" fill="#FFAB6D"/>
<path d="M39.6333 81.7702C39.6333 81.7702 42.7917 72.0074 37.2951 66.5106C31.7984 61.0139 29.7474 48.0925 42.4637 41.4883" stroke="#222221" stroke-width="1.64081" stroke-miterlimit="10" stroke-linecap="round" stroke-linejoin="round" stroke-dasharray="1.64 1.64"/>
<path d="M30.8805 115.52C37.6317 115.52 43.1045 110.047 43.1045 103.296C43.1045 96.545 37.6317 91.0721 30.8805 91.0721C24.1294 91.0721 18.6565 96.545 18.6565 103.296C18.6565 110.047 24.1294 115.52 30.8805 115.52Z" fill="#EF7822" stroke="#222221" stroke-width="1.64081" stroke-miterlimit="10" stroke-linecap="round" stroke-linejoin="round"/>
<path d="M30.8804 110.434C34.8224 110.434 38.018 107.238 38.018 103.296C38.018 99.3548 34.8224 96.1592 30.8804 96.1592C26.9385 96.1592 23.7429 99.3548 23.7429 103.296C23.7429 107.238 26.9385 110.434 30.8804 110.434Z" fill="white" stroke="#222221" stroke-width="1.64081" stroke-miterlimit="10" stroke-linecap="round" stroke-linejoin="round"/>
<path d="M80.2277 129.918C86.9788 129.918 92.4517 124.445 92.4517 117.694C92.4517 110.943 86.9788 105.47 80.2277 105.47C73.4765 105.47 68.0037 110.943 68.0037 117.694C68.0037 124.445 73.4765 129.918 80.2277 129.918Z" fill="#EF7822" stroke="#222221" stroke-width="1.64081" stroke-miterlimit="10" stroke-linecap="round" stroke-linejoin="round"/>
<path d="M80.1048 124.997C83.9108 124.997 86.9961 121.911 86.9961 118.105C86.9961 114.299 83.9108 111.213 80.1048 111.213C76.2988 111.213 73.2134 114.299 73.2134 118.105C73.2134 121.911 76.2988 124.997 80.1048 124.997Z" fill="white" stroke="#222221" stroke-width="1.64081" stroke-miterlimit="10" stroke-linecap="round" stroke-linejoin="round"/>
<path d="M29.1578 103.871L28.8706 103.379C28.3373 102.394 28.7065 101.205 29.6499 100.671L44.0481 92.7954C45.0325 92.2621 46.2221 92.6313 46.7554 93.5747L47.0426 94.067C47.5758 95.0515 47.2066 96.2411 46.2632 96.7743L31.8651 104.65C30.8806 105.183 29.6499 104.814 29.1578 103.871Z" fill="white" stroke="#222221" stroke-width="1.64081" stroke-miterlimit="10" stroke-linecap="round" stroke-linejoin="round"/>
<path d="M65.8297 110.722L80.6791 115.07C81.3763 115.274 81.9506 115.685 82.3608 116.259C83.5505 117.9 82.9352 120.197 81.0893 121.017C80.3919 121.346 79.6125 121.386 78.8741 121.182L62.9993 116.546L65.8297 110.722Z" fill="white" stroke="#222221" stroke-width="1.64081" stroke-miterlimit="10" stroke-linecap="round" stroke-linejoin="round"/>
<path d="M55.7798 77.8226L48.4781 102.435C48.4781 102.435 46.5092 107.932 49.5037 108.793C52.4982 109.654 60.8663 112.116 60.8663 112.116L61.2354 116.545L46.7964 112.362C44.7454 111.747 43.1866 110.106 42.6533 108.013L34.1621 91.2773C34.2032 91.3183 42.8174 74.0488 55.7798 77.8226Z" fill="white" stroke="#222221" stroke-width="1.64081" stroke-miterlimit="10" stroke-linecap="round" stroke-linejoin="round"/>
<path d="M66.9372 94.9693C63.3684 94.8463 60.538 97.9638 60.9893 101.491L60.415 116.341L66.1578 118.023C66.1578 118.023 67.1013 100.343 82.9762 98.9073L82.8121 95.1745L66.9372 94.9693Z" fill="white" stroke="#222221" stroke-width="1.64081" stroke-miterlimit="10" stroke-linecap="round" stroke-linejoin="round"/>
<path d="M85.8475 96.815C85.7245 98.3739 84.3707 99.5224 82.771 99.3993L61.0714 97.8406C59.5125 97.7175 58.364 96.3639 58.4871 94.764C58.6101 93.2053 59.9638 92.0567 61.5635 92.1798L83.2633 93.7386C84.822 93.9027 85.9706 95.2563 85.8475 96.815Z" fill="white" stroke="#222221" stroke-width="1.64081" stroke-miterlimit="10" stroke-linecap="round" stroke-linejoin="round"/>
<path d="M85.8475 96.815C85.7245 98.3739 84.3707 99.5224 82.771 99.3993L61.0714 97.8406C59.5125 97.7175 58.364 96.3639 58.4871 94.764C58.6101 93.2053 59.9638 92.0567 61.5635 92.1798L83.2633 93.7386C84.822 93.9027 85.9706 95.2563 85.8475 96.815Z" fill="#EF7822" stroke="#222221" stroke-width="1.64081" stroke-miterlimit="10" stroke-linecap="round" stroke-linejoin="round"/>
<path d="M55.5745 78.5204L47.6576 76.1823C45.6887 75.608 44.54 73.516 45.1144 71.5059L45.6476 69.701C46.2219 67.7321 48.314 66.5835 50.3239 67.1578L58.2408 69.4959L55.5745 78.5204Z" fill="white" stroke="#222221" stroke-width="1.64081" stroke-miterlimit="10" stroke-linecap="round" stroke-linejoin="round"/>
<path d="M60.9483 74.6641L54.6723 72.8182C53.5647 72.49 52.9494 71.3415 53.2776 70.2339C53.6057 69.1263 54.7543 68.5111 55.8618 68.8393L62.138 70.6851C63.2455 71.0133 63.8608 72.1618 63.5326 73.2694C63.2044 74.3769 62.0559 74.9922 60.9483 74.6641Z" fill="#EF7822" stroke="#222221" stroke-width="1.64081" stroke-miterlimit="10" stroke-linecap="round" stroke-linejoin="round"/>
<path d="M54.7131 68.8397L60.7431 61.6201" stroke="#222221" stroke-width="1.64081" stroke-miterlimit="10" stroke-linecap="round" stroke-linejoin="round"/>
<path d="M64.1068 65.4759L61.2764 64.6556C60.415 64.4094 59.9227 63.507 60.1688 62.6456L60.2919 62.1944C60.538 61.3329 61.4405 60.8406 62.3019 61.0868L65.1323 61.9072C65.9937 62.1533 66.486 63.0557 66.2399 63.9172L66.1168 64.3684C65.8707 65.2299 64.9682 65.722 64.1068 65.4759Z" fill="white" stroke="#222221" stroke-width="1.64081" stroke-miterlimit="10" stroke-linecap="round" stroke-linejoin="round"/>
<path d="M82.7302 81.5966L104.184 87.9958V38.5664L82.5251 46.9756C80.6382 47.3448 79.2844 48.9855 79.2844 50.9135V77.6587C79.2844 79.6276 80.7612 81.3094 82.7302 81.5966Z" fill="white" stroke="#222221" stroke-width="1.64081" stroke-miterlimit="10" stroke-linecap="round" stroke-linejoin="round"/>
<path d="M139.748 80.9812L104.184 87.9958V38.5664L136.508 44.3503C138.395 44.7195 139.748 46.3602 139.748 48.2882V80.9812Z" fill="white" stroke="#222221" stroke-width="1.64081" stroke-miterlimit="10" stroke-linecap="round" stroke-linejoin="round"/>
<path d="M139.748 51.8159L104.184 47.5498L79.2844 54.9335" stroke="#222221" stroke-width="1.64081" stroke-miterlimit="10" stroke-linecap="round" stroke-linejoin="round"/>
<path d="M117.351 49.1083V41.8066" stroke="#222221" stroke-width="1.64081" stroke-miterlimit="10" stroke-linecap="round" stroke-linejoin="round"/>
<path d="M129.78 50.667V43.9397" stroke="#222221" stroke-width="1.64081" stroke-miterlimit="10" stroke-linecap="round" stroke-linejoin="round"/>
<path d="M104.184 87.9959L136.098 97.9228L166.699 87.9959L139.748 80.9814L104.184 87.9959Z" fill="white"/>
<path d="M104.184 87.996L130.888 96.282C134.292 97.3486 137.943 97.3075 141.307 96.1999L162.719 89.2676C163.868 88.8984 163.827 87.2166 162.638 86.9294L139.748 80.9404L104.184 87.996Z" stroke="#222221" stroke-width="1.64081" stroke-miterlimit="10" stroke-linecap="round" stroke-linejoin="round"/>
<path d="M139.748 80.9809L104.184 76.8379" stroke="#222221" stroke-width="1.64081" stroke-miterlimit="10" stroke-linecap="round" stroke-linejoin="round"/>
<path d="M122.11 59.487V56.0002C122.11 54.9747 122.93 54.1133 123.997 54.1133C124.038 54.1133 124.078 54.1133 124.12 54.1133L127.237 54.5235C128.222 54.5646 129.042 55.3849 129.042 56.4104V59.8972" stroke="#222221" stroke-width="1.64081" stroke-miterlimit="10" stroke-linecap="round" stroke-linejoin="round"/>
<path d="M137 85.1651L117.351 87.052L118.253 58.502L135.606 60.1428L137 85.1651Z" fill="#EF7822" stroke="#222221" stroke-width="1.64081" stroke-miterlimit="10" stroke-linecap="round" stroke-linejoin="round"/>
<path d="M117.351 87.052L109.516 84.5498L111.69 60.3889L118.254 58.502L117.351 87.052Z" fill="#EF7822" stroke="#222221" stroke-width="1.64081" stroke-miterlimit="10" stroke-linecap="round" stroke-linejoin="round"/>
<path d="M91.3032 112.566L106.029 115.52" stroke="#222221" stroke-width="1.64081" stroke-miterlimit="10" stroke-linecap="round" stroke-linejoin="round"/>
<path d="M92.4519 119.007L102.461 120.975" stroke="#222221" stroke-width="1.64081" stroke-miterlimit="10" stroke-linecap="round" stroke-linejoin="round"/>
<path d="M90.606 125.037L98.2358 126.555" stroke="#222221" stroke-width="1.64081" stroke-miterlimit="10" stroke-linecap="round" stroke-linejoin="round"/>
<path d="M109.353 11.4111C109.353 11.4111 109.516 14.7338 102.625 24.3735C95.7336 34.0132 86.586 30.0753 86.1347 26.7937C85.6426 23.5121 89.2113 22.9789 89.2113 22.9789C90.4009 22.9789 91.4674 22.7327 92.3699 23.0609C92.3699 23.0609 101.64 22.3635 98.2358 40.5765" stroke="#222221" stroke-width="1.64081" stroke-miterlimit="10" stroke-linecap="round" stroke-linejoin="round" stroke-dasharray="2.87 2.87"/>
<path d="M112.921 12.3953C112.429 11.6569 111.895 10.9595 111.28 10.2622C110.869 9.81099 110.419 9.15466 109.803 8.99059C109.27 8.86752 108.818 9.19569 108.408 9.44181C107.506 9.97507 106.644 10.5494 105.742 11.1236C104.922 11.6569 105.661 12.9696 106.521 12.4363C107.014 12.1081 107.547 11.78 108.039 11.4928C108.285 11.3287 109.27 10.5083 109.557 10.5494C109.311 10.4673 109.353 10.5904 109.721 10.8365C109.926 11.0416 110.132 11.2877 110.336 11.4928C110.788 12.0261 111.198 12.5594 111.567 13.1336C112.141 13.954 113.495 13.2156 112.921 12.3953Z" fill="#222221"/>
<g clip-path="url(#clip1_145_549)">
<path d="M59.3791 17.0282L39.6446 25.7901C38.635 26.2383 38.18 27.4201 38.6282 28.4296L46.0054 45.0454C46.4537 46.0549 47.6354 46.51 48.6449 46.0618L68.3794 37.2999C69.389 36.8517 69.844 35.6699 69.3958 34.6604L62.0186 18.0446C61.5704 17.035 60.3886 16.58 59.3791 17.0282Z" fill="white" stroke="#222222" stroke-width="2" stroke-linecap="round" stroke-linejoin="round"/>
<path d="M64.6685 24.0137L70.9059 21.2443L77.661 23.8454L81.1226 31.6422L70.2071 36.4885L64.6685 24.0137Z" fill="#EF7822" stroke="#222222" stroke-width="2" stroke-linecap="round" stroke-linejoin="round"/>
<path d="M57.2956 51.5551C59.4486 50.5992 60.4191 48.0789 59.4632 45.9259C58.5073 43.7728 55.987 42.8024 53.8339 43.7583C51.6809 44.7142 50.7105 47.2345 51.6664 49.3875C52.6223 51.5406 55.1426 52.511 57.2956 51.5551Z" fill="white" stroke="#222222" stroke-width="2" stroke-linecap="round" stroke-linejoin="round"/>
<path d="M77.5673 42.5542C79.7204 41.5983 80.6908 39.078 79.7349 36.925C78.779 34.772 76.2587 33.8015 74.1057 34.7574C71.9526 35.7134 70.9822 38.2337 71.9381 40.3867C72.894 42.5397 75.4143 43.5101 77.5673 42.5542Z" fill="white" stroke="#222222" stroke-width="2" stroke-linecap="round" stroke-linejoin="round"/>
</g>
</g>
</g>
<defs>
<filter id="filter0_d_145_549" x="0.780518" y="0" width="176.759" height="144" filterUnits="userSpaceOnUse" color-interpolation-filters="sRGB">
<feFlood flood-opacity="0" result="BackgroundImageFix"/>
<feColorMatrix in="SourceAlpha" type="matrix" values="0 0 0 0 0 0 0 0 0 0 0 0 0 0 0 0 0 0 127 0" result="hardAlpha"/>
<feOffset dx="3" dy="3"/>
<feGaussianBlur stdDeviation="2"/>
<feComposite in2="hardAlpha" operator="out"/>
<feColorMatrix type="matrix" values="0 0 0 0 0 0 0 0 0 0 0 0 0 0 0 0 0 0 0.2 0"/>
<feBlend mode="normal" in2="BackgroundImageFix" result="effect1_dropShadow_145_549"/>
<feBlend mode="normal" in="SourceGraphic" in2="effect1_dropShadow_145_549" result="shape"/>
</filter>
<clipPath id="clip0_145_549">
<rect x="1.78052" y="1" width="168.759" height="136" rx="5" fill="white"/>
</clipPath>
<clipPath id="clip1_145_549">
<rect width="40.9474" height="40.9474" fill="white" transform="translate(34.1802 22.6162) rotate(-23.9406)"/>
</clipPath>
</defs>
</svg>
