<svg xmlns="http://www.w3.org/2000/svg" viewBox="0 0 178 145"><defs><style>.cls-1{fill:#ffab6d;}.cls-2,.cls-3,.cls-6{fill:#fff;}.cls-2,.cls-4,.cls-5,.cls-6{stroke:#000;}.cls-2,.cls-3,.cls-4,.cls-5,.cls-6{stroke-miterlimit:10;}.cls-2,.cls-4{stroke-width:2px;}.cls-3{stroke:#231f20;stroke-width:3px;}.cls-4,.cls-5{fill:#ef7822;}.cls-5{stroke-width:0.75px;}</style></defs><g id="Layer_2" data-name="Layer 2"><g id="Layer_1-2" data-name="Layer 1"><rect class="cls-1" width="178" height="145"/><path class="cls-2" d="M99.44,49.55c-.37-.46-.73-.84-1-1.26-.9-1.4-1.86-2.76-2.64-4.22a6,6,0,0,0-8-2.81,5.88,5.88,0,0,0-2.65,8,39.56,39.56,0,0,0,7.27,10.19c1.24,1.28,2.59,2.45,3.92,3.63a1,1,0,0,1,.38,1,72.42,72.42,0,0,0-1,11.85c0,.53.1.75.7.84,5.9.9,11.8,1.84,17.7,2.76a7.32,7.32,0,0,1,6,4.88c3,7.56,6,15.11,8.92,22.68a17.42,17.42,0,0,1,1.35,4.45,6.76,6.76,0,0,1-3.67,6.93,7.08,7.08,0,0,1-7.8-.34,7.32,7.32,0,0,1-2.77-3.59q-4-10.2-8-20.39a1.09,1.09,0,0,0-1-.8c-7.65-1.17-15.29-2.32-22.92-3.57-4.57-.74-7.36-3.56-8.75-7.9a24.4,24.4,0,0,1-1-6.61c-.15-3.63-.23-7.28-.07-10.92a62,62,0,0,1,3.33-16,18.92,18.92,0,0,1,4.36-7.93c3.07-3,6.7-4.55,11.06-3.79a7,7,0,0,1,5.17,4.2,13.56,13.56,0,0,1,1.18,8.25A2.11,2.11,0,0,1,99.44,49.55Z"/><path class="cls-3" d="M47.94,89.61q-9.09,0-18.16,0c-2.42,0-3.61-1.18-3.61-3.61V50.12c0-2.41,1.21-3.59,3.63-3.59H66.19c2.41,0,3.6,1.2,3.6,3.61V86c0,2.4-1.2,3.59-3.62,3.59Q57.05,89.63,47.94,89.61Zm-.06-20.94c-.06.35-.08.57-.13.78-.66,2.69-1.33,5.39-2,8.08-.6,2.45-1.19,4.91-1.79,7.36-.13.54-.1,1,.49,1.23a1,1,0,0,0,1.3-.54l.12-.27q5.35-11.49,10.7-23a1.31,1.31,0,0,0,0-1.13,1.44,1.44,0,0,0-1.17-.28c-2.22.5-4.43,1.07-6.64,1.61-.35.09-.71.16-1.15.26.11-.33.17-.55.25-.75l3-8.23c.47-1.25.18-1.67-1.19-1.67H44.07c-1.19,0-1.35.14-1.63,1.28q-1.15,4.8-2.33,9.6c-.52,2.12-1,4.24-1.54,6.36-.24,1,.19,1.43,1.18,1.29.15,0,.29-.07.44-.1Z"/><path class="cls-2" d="M131.91,120.53c0,1.27,0,2.44,0,3.6s.19,2.26.29,3.44h-47c1.15-8-1.09-14.74-7.32-19.95A19.39,19.39,0,0,0,64.82,103,20,20,0,0,0,49,110.58a20.42,20.42,0,0,0-4.31,17H34.52c.09-1.12.13-2.22.27-3.31a81.39,81.39,0,0,1,4.92-17.79c.42-1.13.87-2.26,1.33-3.44l-.38-.1a2.29,2.29,0,0,1-2.19-2.3q-.09-3.27,0-6.55a2.29,2.29,0,0,1,2.47-2.31H88.87a2.26,2.26,0,0,1,2.45,2.46c0,2.11,0,4.22,0,6.33a2.36,2.36,0,0,1-1.19,2.09,1,1,0,0,0-.38.72A49.52,49.52,0,0,0,94,119.62a1.33,1.33,0,0,0,1.42.93q17.86,0,35.72,0Z"/><path class="cls-4" d="M115.87,15.67c-2,.37-3.84.63-5.68,1.1a13.38,13.38,0,0,0-3.27,1.36,3.58,3.58,0,0,0-1.9,3.94c.25,1.8.6,3.58.69,5.38.18,3.28-.29,3.47-3.15,3.83a23.3,23.3,0,0,1-9.9-1.08,9.43,9.43,0,0,1-6.38-6.8c-1.77-5.88-1-11.31,3.24-15.87a14.52,14.52,0,0,1,15.34-4.32c6,1.66,9.54,5.76,11,11.77a4.34,4.34,0,0,1,.07.52A.76.76,0,0,1,115.87,15.67Z"/><path class="cls-2" d="M135.24,110.87l-13.38-39c-1.81.68-3.55,1.39-5.32,2a4.71,4.71,0,0,1-2.1.21,2.78,2.78,0,0,1-2.16-2.79c.44,0,.86.08,1.29.1,2.21.07,4.41.27,6.61.17,3-.13,5.08-2.15,5.69-5.52.28.58.51,1,.66,1.38q2,5.86,4,11.73a1.58,1.58,0,0,0,.92,1,27.31,27.31,0,0,1,13.36,12A46.36,46.36,0,0,1,147.28,98a1.16,1.16,0,0,0,1.31.86,23.88,23.88,0,0,1,9.61,2A22.19,22.19,0,0,1,169,110.87a4.12,4.12,0,0,1,.38,1.12,1.18,1.18,0,0,1-1,1.53.88.88,0,0,1-1.05-.43,19.75,19.75,0,0,0-12.91-8.58A20.19,20.19,0,0,0,135.9,110,9.64,9.64,0,0,0,135.24,110.87Z"/><path class="cls-2" d="M120,69.48A36.07,36.07,0,0,1,94.44,59.1a41.86,41.86,0,0,1-8.1-10.68c-1.24-2.33-.92-4.73.84-6.23a4.67,4.67,0,0,1,7.24,1.36,34.1,34.1,0,0,0,6.14,8.36A26.6,26.6,0,0,0,119,60c1.11,0,2.23-.08,3.34,0a4.71,4.71,0,0,1-.32,9.4C121.34,69.52,120.64,69.48,120,69.48Z"/><path class="cls-4" d="M147.25,69.85c-.3,1.81-.58,3.61-.89,5.41a4.88,4.88,0,0,1-.32,1c-.9,2.25-1.86,2.8-4.24,2.43a9,9,0,0,1,1-17.85,2.72,2.72,0,0,1,2.69,1.46,12.18,12.18,0,0,1,1.45,5.1c.1.81.11,1.63.16,2.44Z"/><path class="cls-2" d="M92.3,31.42a31.49,31.49,0,0,0,9.13,1.2,21.64,21.64,0,0,0,3.06-.49,2.77,2.77,0,0,0,2.42-3,42.54,42.54,0,0,0-.32-4.5c-.09-.94-.24-1.87-.37-2.8a2.5,2.5,0,0,1,1.2-2.6,13,13,0,0,1,4.87-1.72,9.22,9.22,0,0,0,1.17-.2c.82-.29,1.17.07,1.47.8a13.29,13.29,0,0,1-10.29,18.15A13,13,0,0,1,92.48,31.7,2.88,2.88,0,0,1,92.3,31.42Z"/><path class="cls-5" d="M47.88,68.67l-7.69,1.91c-.15,0-.29.08-.44.1-1,.14-1.42-.31-1.18-1.29.5-2.12,1-4.24,1.54-6.36q1.17-4.8,2.33-9.6c.28-1.14.44-1.28,1.63-1.28h5.65c1.37,0,1.66.42,1.19,1.67l-3,8.23c-.08.2-.14.42-.25.75.44-.1.8-.17,1.15-.26,2.21-.54,4.42-1.11,6.64-1.61a1.44,1.44,0,0,1,1.17.28,1.31,1.31,0,0,1,0,1.13q-5.32,11.49-10.7,23l-.12.27a1,1,0,0,1-1.3.54c-.59-.2-.62-.69-.49-1.23.6-2.45,1.19-4.91,1.79-7.36.66-2.69,1.33-5.39,2-8.08C47.8,69.24,47.82,69,47.88,68.67Z"/><path class="cls-4" d="M47.31,122.62a17.6,17.6,0,1,1,17.62,17.6A17.57,17.57,0,0,1,47.31,122.62Zm10.62,0a7,7,0,1,0,7-7A7,7,0,0,0,57.93,122.64Z"/><path class="cls-6" d="M57.93,122.64a7,7,0,1,1,7,7A7,7,0,0,1,57.93,122.64Z"/><path class="cls-4" d="M168.26,123.63A17.59,17.59,0,1,1,150.76,106,17.57,17.57,0,0,1,168.26,123.63Zm-10.6,0a7,7,0,1,0-7,7A7,7,0,0,0,157.66,123.6Z"/><path class="cls-6" d="M157.65,123.6a7,7,0,1,1-7-7A7,7,0,0,1,157.65,123.6Z"/><path d="M6.24,29.36a522.93,522.93,0,0,1,65.65,0,522.93,522.93,0,0,1-65.65,0Z"/><path d="M28.93,24.13a157.46,157.46,0,0,1,36-.66,157.46,157.46,0,0,1-36,.66Z"/><path d="M43.41,34.34a147.2,147.2,0,0,1,34.85.11,148.27,148.27,0,0,1-34.85-.11Z"/></g></g></svg>