<svg width="82" height="82" viewBox="0 0 82 82" fill="none" xmlns="http://www.w3.org/2000/svg">
<path d="M37.9771 11.112C38.1659 11.112 38.402 11.2064 38.6066 11.4897C37.6938 10.1834 39.6296 10.75 39.7397 9.5067C40.8414 8.68831 40.448 8.1532 40.7627 8.12173L41.109 7.83844C40.4322 8.09025 40.1962 8.13746 40.0073 8.13746H39.6925C39.4565 8.13746 39.063 8.18468 38.1344 8.46797C36.0098 8.62535 34.4831 10.9232 33.7592 10.9861C33.0195 11.3796 33.051 11.4583 33.2241 11.4583C33.2713 11.4583 33.3342 11.4425 33.3972 11.4425C33.4601 11.4425 33.5074 11.4268 33.5546 11.4268C33.7277 11.4268 33.6805 11.5055 32.6732 11.9776C32.9093 12.0406 30.9105 12.9219 30.8948 14.3069C30.8318 14.842 31.0522 15.204 31.4142 15.204C31.7289 15.204 32.1224 14.9679 32.5473 14.3698C33.9638 12.7331 36.9541 12.5757 38.2446 11.5842C37.4419 11.5212 37.5993 11.112 37.9771 11.112ZM30.7846 11.6629C30.643 11.6629 30.8318 11.4897 31.0364 11.3166C31.2568 11.1435 31.5086 10.9704 31.5086 10.9704L31.4929 10.9861C32.3427 10.6556 31.8234 10.5769 32.2798 10.3566H32.2483C32.1539 10.3566 32.327 10.2307 32.4844 10.089C32.6418 9.96311 32.7834 9.82147 32.6418 9.82147C32.5631 9.82147 32.3585 9.86868 32.0122 10.0103C32.1224 9.85294 32.5473 9.74277 33.1454 9.41227C32.2798 9.69556 31.603 9.86868 31.5243 9.86868C31.4614 9.86868 31.8234 9.74277 32.9093 9.41227C32.9565 9.41227 33.0037 9.42801 33.0352 9.42801C33.1454 9.42801 33.1926 9.39653 33.1769 9.36505C33.1611 9.33358 33.0982 9.31784 32.988 9.31784C31.4299 9.44375 30.2653 10.4195 30.6115 10.5454C30.8161 10.4825 30.9578 10.451 31.0522 10.451C31.2568 10.451 31.1624 10.6241 30.7532 10.8759C30.942 11.3166 27.6055 12.4498 27.2278 12.859C27.4166 12.7488 27.5425 12.7173 27.6055 12.7173C27.8573 12.7173 27.5268 13.2052 27.1963 13.4413C27.4009 13.6301 27.5583 13.6931 27.6842 13.6931C28.0147 13.6931 28.1563 13.2367 28.4396 13.095C28.5026 13.2209 28.5655 13.2839 28.6442 13.2839C28.9118 13.2839 29.2423 12.6229 29.5098 12.2766C29.5885 12.3553 29.6829 12.4183 29.8089 12.4183C30.0607 12.4183 30.4384 12.2137 31.0364 11.6314C30.9105 11.6471 30.8161 11.6629 30.7846 11.6629ZM27.1648 14.5587C26.5982 14.905 26.2992 15.0466 26.1733 15.0466C25.9372 15.0466 26.252 14.6059 26.5353 14.1495C26.8186 13.7088 27.0704 13.2682 26.7084 13.2682C26.5353 13.2682 26.2205 13.3626 25.7169 13.6144C24.3476 14.5272 22.0341 17.0454 21.0111 17.0454H20.9167C22.5692 15.8335 22.0813 13.457 24.3949 12.8432C26.6769 11.5369 28.235 11.9461 30.2653 10.451C29.6672 10.75 28.7859 11.0805 28.5813 11.0805C28.4554 11.0805 28.6442 10.9232 29.4626 10.5297C29.3839 10.5454 29.321 10.5612 29.2738 10.5612C28.7229 10.5612 32.8936 9.06603 33.0982 9.03455C31.3827 9.27062 28.6127 10.7028 28.235 10.7028C28.1878 10.7028 28.1878 10.6871 28.1878 10.6556C28.2508 10.6084 28.2508 10.5769 28.1878 10.5769C27.9832 10.5769 27.1333 10.8602 26.2677 11.1435C25.4179 11.4268 24.5522 11.7258 24.3634 11.7258C24.3004 11.7258 24.3004 11.6943 24.3949 11.6314C16.9664 15.8493 10.7655 22.963 8.82965 31.3987C9.6323 33.2401 9.08146 36.7498 10.4035 37.7728C11.9144 39.0476 9.11294 42.7461 9.85264 45.0281C10.6081 49.1516 13.8659 51.9687 14.2122 56.1866C14.8102 59.0825 16.9978 62.6236 17.9107 64.465C18.6032 65.1575 20.5075 67.1562 20.838 67.1562C20.9639 67.1562 20.8852 66.8572 20.3816 66.0546C20.0668 65.1575 18.2412 62.8125 19.1225 62.8125C19.1697 62.8125 19.217 62.8125 19.2799 62.8282C18.194 61.7265 21.6879 62.0255 19.2484 60.5304C18.9651 60.1842 18.9022 60.074 18.9651 60.074C19.0438 60.074 19.2642 60.1999 19.516 60.3258C19.7835 60.4517 20.0983 60.5776 20.3501 60.5776C20.7436 60.5776 21.0111 60.3101 20.8537 59.3343C20.9167 59.3658 20.9796 59.3658 21.0269 59.3658C21.4361 59.3658 21.2944 58.5631 21.3259 57.7605C21.3574 56.9578 21.562 56.1551 22.6636 56.1551C22.7896 56.1551 22.9312 56.1709 23.0728 56.1866C25.6225 54.8016 23.4034 50.9772 26.3307 49.5765C26.2205 46.3974 21.9554 46.24 20.3501 44.9494C20.0826 45.1068 19.8307 45.154 19.5789 45.154C19.2956 45.154 19.0438 45.0911 18.8235 45.0124C18.6032 44.9494 18.3986 44.8708 18.2569 44.8708C18.2254 44.8708 18.194 44.8708 18.1625 44.8865C20.901 44.1625 18.9022 40.3538 16.6359 40.3538H16.4785C16.3054 38.7013 15.4555 39.3309 15.3611 37.9616C15.2194 38.0403 15.0778 38.0718 14.9361 38.0718C14.5584 38.0718 14.2122 37.8042 13.9131 37.5524C13.6141 37.2849 13.3623 37.0331 13.142 37.0331C12.9688 37.0331 12.8114 37.2062 12.6698 37.7098C12.8272 36.9386 12.78 36.6868 12.6226 36.6868C12.4652 36.6868 12.1819 36.9544 11.8671 37.2219C11.5681 37.4895 11.2219 37.757 10.9543 37.757H10.8756C9.03424 36.4507 10.8914 34.1372 9.91559 32.3588C10.5451 31.682 10.7969 30.5331 10.5136 30.5331C10.372 30.5331 10.0887 30.8164 9.64804 31.5876C9.01851 29.9823 10.6868 26.3467 12.1032 26.1421C12.1504 26.1421 12.1819 26.1264 12.2291 26.1264C12.4809 26.1264 12.7328 26.2523 12.9531 26.5198C13.079 27.2595 12.7642 28.8176 12.8901 28.8176C12.9531 28.8176 13.079 28.5029 13.3938 27.6845C13.803 25.8116 16.6673 24.4581 16.9664 23.3092C16.9821 23.325 16.9821 23.325 16.9978 23.325C17.3284 23.325 19.453 21.4521 20.3816 21.2475C20.7436 20.8855 20.9954 20.7596 21.1842 20.7596C21.3888 20.7596 21.499 20.917 21.5777 21.0586C21.6564 21.216 21.7193 21.3577 21.798 21.3577C21.861 21.3577 21.9397 21.2632 22.0813 20.9957C21.5934 20.0356 22.8525 19.1228 22.5063 19.1228C22.3804 19.1228 22.0026 19.2487 21.2315 19.5635C21.1056 19.6265 21.0426 19.6422 21.0111 19.6422C20.9167 19.6422 21.2944 19.3904 21.8453 19.1386C22.3961 18.8868 23.0886 18.6349 23.6709 18.6349C23.9542 18.6349 24.206 18.6979 24.3949 18.8553C26.8343 18.273 25.4965 17.4703 25.6225 17.4703H25.6539C26.3464 17.0611 26.1418 15.5187 27.1648 14.5587ZM16.2581 20.9957C16.2267 20.9957 16.3683 20.7911 16.8405 20.2088C17.8162 19.4848 18.6032 18.9969 17.7061 18.5248C18.0995 18.3516 18.4772 18.147 18.8392 17.9267C18.8235 18.6979 18.1782 20.5708 17.832 20.5708C17.7533 20.5708 17.6746 20.4606 17.6431 20.2245C17.8477 19.8625 17.8635 19.7209 17.7848 19.7209C17.6589 19.7209 17.2969 20.0356 16.9506 20.3662C16.6044 20.6652 16.2896 20.9957 16.2581 20.9957ZM17.1552 21.4206C16.7303 21.4206 16.809 21.1531 18.1153 20.8855C18.6818 20.8068 18.2412 20.8383 18.9179 20.6809C18.2569 21.216 17.5172 21.4206 17.1552 21.4206ZM41.6283 19.8311C41.8172 19.7996 41.9589 19.7996 42.069 19.7996C42.5254 19.7996 42.3208 19.9884 42.0533 20.1773C41.7857 20.3662 41.4552 20.555 41.6441 20.555C41.7543 20.555 42.0533 20.4921 42.6671 20.3189C45.7675 20.0986 41.4552 17.4703 42.1477 16.589L41.9589 16.526C40.6841 18.147 42.8087 18.1785 41.6283 19.8311ZM40.3378 19.894C40.5581 19.894 40.8414 19.6422 41.1405 18.934C41.5497 18.4461 41.3765 18.3831 40.9359 18.147C39.724 18.4618 39.8342 19.894 40.3378 19.894ZM51.1973 24.8831C51.15 24.8831 51.1186 24.8988 51.0871 24.9145C51.213 24.946 51.3389 24.9775 51.4648 24.9775C51.3389 24.9145 51.2602 24.8831 51.1973 24.8831ZM72.3339 28.8019C72.6014 29.3842 72.743 29.6203 72.7588 29.6203C72.8689 29.6203 70.7758 24.5211 69.9101 23.6083C65.3932 16.1798 57.9647 10.4982 49.4975 8.37354H49.4818C49.2614 8.37354 49.5133 8.48371 49.8123 8.59388C50.1113 8.70404 50.4733 8.81421 50.4733 8.81421C50.4733 8.81421 50.2372 8.73552 49.5133 8.53092C48.7106 8.29485 47.8922 8.12173 47.0581 8.05877C46.9164 8.10599 50.5048 9.52244 52.9127 10.2621C52.1101 10.0103 51.276 9.78999 51.0714 9.78999C50.9297 9.78999 51.0714 9.88442 51.6537 10.1362C50.9454 9.93163 50.6464 9.8372 50.6149 9.8372C50.5677 9.8372 51.5592 10.1677 52.4878 10.4982C53.4321 10.8287 54.3292 11.1592 54.0774 11.1592C54.0144 11.1592 53.8413 11.1277 53.5737 11.0805C54.3764 11.5212 54.6597 11.6943 54.6125 11.6943C54.5338 11.6943 53.5423 11.2222 52.5193 10.75C51.512 10.2779 50.489 9.80573 50.3474 9.80573C50.2687 9.80573 50.4733 9.96311 51.1658 10.3723C52.1101 10.7815 53.0544 11.1907 52.7868 11.1907C52.6609 11.1907 52.2989 11.112 51.5907 10.9074C53.1646 11.7101 50.4733 11.3953 51.3861 12.4812C50.8825 12.0091 50.6779 11.8517 50.6307 11.8517C50.5835 11.8517 50.7094 12.0406 50.8353 12.2294C50.9612 12.4183 51.0556 12.6072 50.9454 12.6072H50.914C52.0157 13.8033 50.1428 12.7331 51.4806 13.8033C50.4733 13.3469 48.7578 12.5914 49.529 12.5914C49.7179 12.5914 50.0798 12.6386 50.6464 12.7645C49.6234 11.5684 46.7276 11.5212 46.6646 11.3796C45.9407 11.4268 45.9249 11.9776 46.0508 12.9849C46.0351 14.5744 44.477 14.6059 44.6816 15.5187C44.6816 15.503 44.6973 15.503 44.6973 15.503C44.7288 15.503 44.7445 15.8178 44.839 16.1483C44.9491 16.463 45.138 16.7936 45.5472 16.7936C45.7675 16.7936 46.0508 16.6991 46.3971 16.463C46.885 17.3444 47.3256 17.6592 47.6719 17.6592C48.1912 17.6592 48.506 16.9509 48.4745 16.3057C47.9079 15.9909 47.1682 13.3783 47.9866 13.3783C48.1125 13.3783 48.2699 13.4413 48.4745 13.5829C47.1997 16.7149 53.5108 14.6217 49.9382 16.0538C50.7408 17.1083 49.4346 17.0611 49.8123 18.3359C49.1985 18.509 48.5217 18.6664 47.9237 18.6664C47.0423 18.6664 46.3656 18.2887 46.4443 16.9667C45.3426 17.549 47.546 19.5163 45.3583 19.5163H45.2324C44.178 21.4521 40.2276 20.7911 43.3281 22.8371C43.5012 23.7342 42.9346 23.8915 42.2107 23.8915C42.0218 23.8915 41.8172 23.8758 41.6126 23.8601C41.408 23.8443 41.2034 23.8443 41.0146 23.8443C40.1962 23.8443 39.6138 24.0489 40.1175 25.3237C39.7555 26.6458 40.6054 27.2281 41.6441 27.2281C42.9032 27.2281 44.4455 26.4097 44.5557 25.0562C45.2324 24.0332 46.098 23.6083 46.9951 23.6083C48.4116 23.6083 49.9067 24.6785 50.8825 26.0005C50.9612 26.1264 51.0241 26.1736 51.0556 26.1736C51.1343 26.1736 51.0556 25.8588 51.0241 25.5441C50.9927 25.2923 50.9927 25.0404 51.0871 24.9618C49.6864 24.5683 48.6162 22.8686 49.0883 22.8686C49.2457 22.8686 49.5762 23.0574 50.1113 23.561H50.19C51.0714 23.561 51.7638 24.2535 52.2989 24.946C52.8498 25.6385 53.259 26.331 53.621 26.331C53.7626 26.331 53.9043 26.2051 54.0302 25.9218C53.9672 25.8274 53.8098 25.5598 53.7311 25.2923C53.6367 24.9617 53.6367 24.6312 54.0616 24.6312C54.2348 24.6312 54.4708 24.6942 54.8013 24.8201C55.8715 24.5368 54.1246 21.7511 55.541 21.7511C55.6827 21.7511 55.8558 21.7826 56.0761 21.8456C56.0604 22.3334 56.2807 22.5066 56.4853 22.5066C56.8945 22.5066 57.3037 21.9242 56.3122 21.7511C56.6899 21.3891 56.9103 21.2475 57.0677 21.2475C57.6185 21.2475 57.1778 23.0732 59.0822 23.0732C59.7274 24.5998 53.4793 23.1833 55.4781 26.1106C55.9345 26.4412 56.5011 26.5041 57.0519 26.5041C57.225 26.5041 57.3824 26.5041 57.5398 26.4884C57.6972 26.4884 57.8546 26.4726 57.9962 26.4726C58.972 26.4726 59.6645 26.7087 59.2395 28.7232C58.7202 29.1009 58.1379 29.2268 57.5398 29.2268C57.0047 29.2268 56.4696 29.1324 55.9502 29.038C55.4309 28.9436 54.9272 28.8491 54.4708 28.8491C53.7626 28.8491 53.196 29.0852 52.8498 29.9036C51.0084 29.1481 48.5847 29.1167 48.8208 26.8346C45.6101 27.291 42.2579 27.0549 39.8971 29.0222C39.7555 31.9024 34.8136 32.8309 36.0098 36.1045C34.5776 39.1263 37.741 43.3599 40.9673 43.3599C41.0775 43.3599 41.2034 43.3599 41.3136 43.3441C43.0763 43.3284 44.8547 42.5415 46.4128 42.5415C47.2155 42.5415 47.9394 42.7461 48.569 43.3756C48.7106 43.3599 48.8365 43.3441 48.9467 43.3441C51.3546 43.3441 48.1755 47.1685 51.0556 47.8138C53.6682 50.5208 49.4503 53.3065 51.512 55.9033C51.7324 57.9336 52.7396 59.6333 52.7396 61.6163C53.0072 61.6478 53.259 61.6636 53.5265 61.6636C56.8473 61.6636 58.9248 58.7677 60.8763 56.5801C60.2783 53.3065 65.5191 52.6612 63.725 48.9942C62.8908 44.9809 67.6753 42.6044 67.4078 38.5912C67.455 38.0246 67.2976 37.8515 67.0615 37.8515C66.8254 37.8515 66.4792 38.0246 66.1487 38.182C65.8024 38.3551 65.4247 38.5125 65.1257 38.5125C64.7322 38.5125 64.4332 38.2449 64.4017 37.3636C62.0882 35.2074 61.0337 32.2801 58.8776 29.9036C61.679 31.2571 63.2686 34.3103 64.5591 37.0803C64.6693 37.1118 64.7794 37.1275 64.9053 37.1275C67.1874 37.1275 70.3666 31.6663 66.9041 30.3443C66.7153 30.8636 66.4634 31.0525 66.1644 31.0525C65.6451 31.0525 65.047 30.423 64.6221 29.8092C64.1971 29.1796 63.9768 28.5501 64.2129 28.5501C64.3703 28.5501 64.7165 28.8019 65.3146 29.4629C65.9913 29.8878 66.6523 29.998 67.3448 29.998C68.0215 29.998 68.714 29.8879 69.438 29.8249C70.3508 30.1869 70.7443 31.3515 71.0276 31.3515C71.0748 31.3515 71.1377 31.3043 71.185 31.1941C71.9089 32.9254 72.743 36.0101 73.4985 36.8442C73.105 34.2002 73.0106 31.3987 72.3339 28.8019ZM63.5519 25.1663C61.7734 24.7099 61.1911 22.5066 59.7904 21.2318C59.7747 20.8855 60.294 20.9485 60.1681 20.3662C62.0567 20.9485 61.4429 21.5308 61.2698 21.641C61.9623 22.7899 63.8981 23.5768 63.5519 25.1663ZM39.1102 13.1895C37.3947 13.6931 37.1587 13.1423 37.4577 14.1967C37.5836 14.2912 37.8197 14.3226 38.0557 14.3226C38.8899 14.3384 40.023 13.8505 39.1102 13.1895ZM64.3073 56.5486C66.5579 54.6443 66.8412 52.3779 66.9513 50.0801C65.9441 52.0474 62.9538 54.2193 64.3073 56.5486ZM54.0616 25.8588C54.0459 25.8746 54.0459 25.8746 54.0459 25.8903C54.0616 25.9218 54.0774 25.9218 54.0774 25.9218C54.0774 25.9218 54.0774 25.9061 54.0616 25.8588ZM41.0775 0.787659C18.8235 0.787659 0.787354 18.8238 0.787354 41.0778C0.787354 63.3318 18.8235 81.368 41.0775 81.368C63.3315 81.368 81.3677 63.3318 81.3677 41.0778C81.3677 18.8238 63.3315 0.787659 41.0775 0.787659ZM41.0775 78.2675C20.539 78.2675 3.88781 61.6163 3.88781 41.0778C3.88781 20.5393 20.539 3.88811 41.0775 3.88811C61.616 3.88811 78.2672 20.5393 78.2672 41.0778C78.2672 61.6163 61.616 78.2675 41.0775 78.2675Z" fill="#B4FFDF"/>
</svg>
