<svg width="178" height="145" viewBox="0 0 178 145" fill="none" xmlns="http://www.w3.org/2000/svg">
<g filter="url(#filter0_d_0_274)">
<g clip-path="url(#clip0_0_274)">
<path d="M-25.97 137.318C-14.1974 148.997 -0.741499 156.696 12.7294 163.05C35.7871 173.957 49.3188 183.449 67.6375 205.44C119.872 268.282 198.845 267.874 240.588 214.237C290.285 150.617 260.44 47.373 189.706 -2.46665C116.273 -54.2319 28.2259 -44.7179 -29.9705 2.94673C-30.8593 3.55764 -31.3756 4.37951 -32.016 5.13087C-44.5512 13.2335 -54.2257 25.2636 -57.8118 45.1182C-63.4662 76.5347 -49.2668 114.1 -25.97 137.318Z" fill="#FFAB6D"/>
<path d="M15.9172 64.7049L16.1274 65.2091L23.1456 82.6917C23.7761 83.7423 25.1209 84.0365 26.1714 83.4061L37.1821 76.6821C37.4342 76.5139 37.6444 76.3039 37.7705 76.0937C38.4008 75.2112 38.1907 73.9925 37.3501 73.278L21.3806 61.3008L16.7998 62.3934L15.9172 64.7049Z" fill="#EF7822" stroke="#272726" stroke-width="1.5554" stroke-miterlimit="10" stroke-linecap="round" stroke-linejoin="round"/>
<path d="M12.9756 58.1483L16.8419 55.7529L18.691 58.7787L14.8247 61.1321L12.9756 58.1483Z" fill="white" stroke="#272726" stroke-width="1.5554" stroke-miterlimit="10" stroke-linecap="round" stroke-linejoin="round"/>
<path d="M19.027 59.493L18.1445 58.1903" stroke="#272726" stroke-width="1.5554" stroke-miterlimit="10" stroke-linecap="round" stroke-linejoin="round"/>
<path d="M14.7404 61.3423H14.8245L18.7329 58.9469H18.8169C19.1952 58.6527 19.7834 58.8208 20.0777 59.2831L21.1282 61.0482C21.4225 61.4264 21.2544 62.0148 20.7921 62.3089L16.7156 64.7464C16.3374 65.0405 15.7491 64.8725 15.4549 64.4102L14.4043 62.6451C14.1941 62.2248 14.3202 61.6365 14.7404 61.3423Z" fill="white" stroke="#272726" stroke-width="1.5554" stroke-miterlimit="10" stroke-linecap="round" stroke-linejoin="round"/>
<path fill-rule="evenodd" clip-rule="evenodd" d="M11.0424 51.3399L15.4971 48.6503L15.8753 48.3561L19.4475 46.1288C20.2459 45.6665 21.2966 45.8766 21.885 46.7171L22.6414 47.9779C23.1037 48.7763 22.8935 49.827 22.095 50.2892L21.0444 50.9197C21.2125 51.1718 21.3386 51.2979 21.4646 51.466C22.5573 52.9368 23.8601 54.2397 24.2803 54.4077C24.4064 54.4918 24.4905 54.4497 24.5746 54.5338C25.2889 54.912 25.5832 55.7525 25.2049 56.467C25.0789 56.6771 24.9528 56.8872 24.7007 57.0554C24.4485 57.2234 24.1123 57.3075 23.818 57.1814C22.6834 57.0133 21.5907 56.6351 20.6241 56.0467C19.8677 55.5845 19.1113 55.1222 18.5229 54.5338L10.8743 59.1986C10.2439 59.5348 9.44544 59.3668 9.15127 58.7784C7.63836 56.2568 8.47886 52.8528 11.0424 51.3399Z" fill="white" stroke="#272726" stroke-width="1.5554" stroke-miterlimit="10" stroke-linecap="round" stroke-linejoin="round"/>
<path d="M27.2642 53.9041L29.8277 44.1963L39.7457 46.0874L27.2642 53.9041Z" fill="#EF7822" stroke="#272726" stroke-width="1.5554" stroke-miterlimit="10" stroke-linecap="round" stroke-linejoin="round"/>
<path d="M29.8276 44.1959L40.2079 38.3964L49.7477 40.3715L39.7456 46.087L29.8276 44.1959Z" fill="#EF7822"/>
<path d="M29.8276 44.1959L40.2079 38.3964L49.7477 40.3715L39.7456 46.087L29.8276 44.1959Z" fill="#EF7822" stroke="#272726" stroke-width="1.5554" stroke-miterlimit="10" stroke-linecap="round" stroke-linejoin="round"/>
<path d="M29.4914 44.1534L27.012 40.8334L37.3082 35.2441L39.8717 38.396L29.4914 44.1534Z" fill="white" stroke="#272726" stroke-width="1.5554" stroke-miterlimit="10" stroke-linecap="round" stroke-linejoin="round"/>
<path d="M44.6206 53.8194L39.7456 46.0868" stroke="#343434" stroke-width="0.518417" stroke-miterlimit="10"/>
<path d="M44.6204 53.8194L39.7454 46.0868L27.2639 53.9034L31.8867 61.2999L44.4943 81.0938L56.8498 73.2351L44.6204 53.8194Z" fill="white" stroke="#272726" stroke-width="1.5554" stroke-miterlimit="10" stroke-linecap="round" stroke-linejoin="round"/>
<path d="M52.8996 70.1251L43.6121 55.4163L50.252 51.4658" stroke="white" stroke-width="0.624884" stroke-miterlimit="10" stroke-linecap="round" stroke-linejoin="round"/>
<path d="M63.5319 62.1829L54.5805 47.9364L49.7476 40.3718L39.7456 46.0873L44.6206 53.8199L54.1182 68.9911L56.8498 73.2356L66.5578 66.8897L63.5319 62.1829Z" fill="white" stroke="#272726" stroke-width="1.5554" stroke-miterlimit="10" stroke-linecap="round" stroke-linejoin="round"/>
<path d="M64.7087 81.6828C63.9942 85.7592 60.212 88.4908 56.0935 87.8604C52.0171 87.146 49.2854 83.3638 49.9158 79.2453L55.7153 42.6833C56.4297 38.6068 60.212 35.8752 64.3305 36.5055C68.407 37.22 71.1386 41.0023 70.5082 45.1208L64.7087 81.6828Z" fill="white" stroke="#272726" stroke-width="1.5554" stroke-miterlimit="10" stroke-linecap="round" stroke-linejoin="round"/>
<path d="M64.2043 45.7089C61.9769 48.4826 58.4047 49.9115 54.6646 49.2811L64.2043 45.7089Z" fill="white"/>
<path d="M64.2043 45.7089C61.9769 48.4826 58.4047 49.9115 54.6646 49.2811" stroke="#272726" stroke-width="1.5554" stroke-miterlimit="10" stroke-linecap="round" stroke-linejoin="round"/>
<path d="M62.8596 54.4503C60.6323 57.224 57.0601 58.6528 53.3198 58.0225L62.8596 54.4503Z" fill="white"/>
<path d="M62.8596 54.4503C60.6323 57.224 57.0601 58.6528 53.3198 58.0225" stroke="#272726" stroke-width="1.5554" stroke-miterlimit="10" stroke-linecap="round" stroke-linejoin="round"/>
<path d="M89.7555 118.413L45.3768 133.668L31.6765 67.1422L72.6091 61.3428L89.7555 118.413Z" fill="white"/>
<path d="M89.7555 118.413L45.3768 133.668L31.6765 67.1422L72.6091 61.3428L89.7555 118.413Z" stroke="#272726" stroke-width="1.5554" stroke-miterlimit="10" stroke-linecap="round" stroke-linejoin="round"/>
<path d="M45.377 133.667L25.8773 132.28L17.4722 75.1684L31.6767 67.1416L45.377 133.667Z" fill="white"/>
<path d="M45.377 133.667L25.8773 132.28L17.4722 75.1684L31.6767 67.1416L45.377 133.667Z" stroke="#272726" stroke-width="1.5554" stroke-miterlimit="10" stroke-linecap="round" stroke-linejoin="round"/>
<path d="M83.9983 92.1044L82.1071 92.6087L77.0641 93.9955L73.2398 95.0041C72.3573 93.7434 70.5922 92.5246 67.9446 93.3232C66.0955 93.8275 64.8768 95.4664 64.8347 97.2314L58.2788 98.9966L62.3972 114.378L79.2494 109.881L86.1415 108.032H86.1836C87.2342 107.737 87.8226 106.646 87.5284 105.594C87.2342 104.544 86.1836 103.914 85.1749 104.166L86.9821 103.703C87.8646 103.451 88.537 102.653 88.537 101.729C88.495 100.425 87.2342 99.5428 86.0576 99.8371C87.1081 99.5428 87.7385 98.4502 87.4864 97.3996C87.1922 96.3489 86.0995 95.7186 85.0489 95.9707C86.0995 95.6766 86.7299 94.5839 86.4778 93.5332C86.1415 92.4406 85.0489 91.8102 83.9983 92.1044Z" fill="white" stroke="#272726" stroke-width="1.5554" stroke-miterlimit="10" stroke-linecap="round" stroke-linejoin="round"/>
<path d="M85.9735 103.914L80.3 105.553" stroke="#272726" stroke-width="1.5554" stroke-miterlimit="10" stroke-linecap="round" stroke-linejoin="round"/>
<path d="M86.2676 99.7119L79.3335 101.687" stroke="#272726" stroke-width="1.5554" stroke-miterlimit="10" stroke-linecap="round" stroke-linejoin="round"/>
<path d="M85.0068 95.9707L78.2827 97.8618" stroke="#272726" stroke-width="1.5554" stroke-miterlimit="10" stroke-linecap="round" stroke-linejoin="round"/>
<path d="M61.1786 97.5257C60.3801 97.5257 59.5817 97.6097 58.7831 97.8198C40.5021 102.737 32.6013 102.611 29.5756 102.107C29.5756 102.107 20.1619 101.392 19.0692 86.0527C18.8171 86.389 15.8753 90.0452 13.9842 93.8695C9.82368 102.485 11.5887 108.452 13.8161 111.898C17.0941 116.984 23.1878 119.673 31.887 119.841C32.2652 119.841 32.6013 119.841 32.9797 119.841C40.5862 119.841 50.5042 118.16 63.2799 114.756C63.9102 114.588 64.4986 114.336 65.0449 114.041C65.3391 110.133 64.7507 104.25 61.1786 97.5257Z" fill="#EF7822" stroke="#272726" stroke-width="1.5554" stroke-miterlimit="10" stroke-linecap="round" stroke-linejoin="round"/>
<path d="M75.341 94.4163L70.1719 96.0132" stroke="#272726" stroke-width="1.5554" stroke-miterlimit="10" stroke-linecap="round" stroke-linejoin="round"/>
<path d="M59.4557 112.781C60.7323 112.781 61.7671 111.747 61.7671 110.47C61.7671 109.194 60.7323 108.158 59.4557 108.158C58.1792 108.158 57.1443 109.194 57.1443 110.47C57.1443 111.747 58.1792 112.781 59.4557 112.781Z" fill="white"/>
<path d="M59.4555 109.041C60.2541 109.041 60.9264 109.713 60.9264 110.511C60.9264 111.31 60.2541 111.982 59.4555 111.982C58.6571 111.982 57.9846 111.31 57.9846 110.511C57.9846 109.671 58.6571 109.041 59.4555 109.041ZM59.4555 107.359C57.7325 107.359 56.3037 108.746 56.3037 110.511C56.3037 112.235 57.6905 113.663 59.4555 113.663C61.2207 113.663 62.6075 112.276 62.6075 110.511C62.6075 108.746 61.1786 107.359 59.4555 107.359Z" fill="#272726"/>
<path d="M51.2183 5.61695L62.313 15.2828C65.549 18.2246 68.2386 21.7967 70.718 25.4108C73.4497 29.3612 76.6857 32.9754 80.3419 36.1693L103.581 56.4676C104.8 57.5602 106.692 57.4341 107.784 56.1733L110.39 53.1896C111.482 51.9708 111.356 50.0797 110.096 48.9871L86.8558 28.6888C83.2416 25.5369 79.2071 22.8053 74.9205 20.62C71.0123 18.6448 67.1459 16.4594 63.7418 13.6438L52.6892 3.97796C52.2269 3.59973 51.5546 3.64175 51.1763 4.10404C50.756 4.52429 50.7981 5.23872 51.2183 5.61695Z" fill="white"/>
<path d="M90.0497 41.5486L81.9388 34.4463C81.3505 33.942 81.3085 33.1015 81.8128 32.5132L83.8719 30.1597C84.3763 29.5715 85.2167 29.5294 85.8051 30.0337L93.916 37.1359C94.5043 37.6403 94.5464 38.4808 94.042 39.0691L91.9829 41.4225C91.4786 41.9689 90.6381 42.053 90.0497 41.5486Z" fill="#EF7822" stroke="#272726" stroke-width="1.5554" stroke-miterlimit="10" stroke-linecap="round" stroke-linejoin="round"/>
<path d="M98.0344 47.4322C97.4461 47.4322 96.8998 47.222 96.4796 46.8438L96.0173 46.4236C95.0087 45.5411 94.9246 44.0281 95.8071 43.0615L96.2274 42.5993C96.6896 42.095 97.3201 41.8008 98.0344 41.8008C98.6228 41.8008 99.1692 42.0109 99.5894 42.3892L100.052 42.8094C100.514 43.2297 100.808 43.818 100.85 44.4484C100.892 45.0788 100.682 45.7091 100.262 46.1714L99.8415 46.6337C99.3792 47.138 98.7489 47.4322 98.0344 47.4322Z" fill="#EF7822"/>
<path d="M97.9927 42.5993C98.3709 42.5993 98.7071 42.7253 99.0013 42.9775L99.4636 43.3977C100.094 43.9441 100.178 44.9526 99.6317 45.583L99.2114 46.0453C98.9173 46.3815 98.497 46.5916 98.0347 46.5916C97.6565 46.5916 97.3203 46.4655 97.0261 46.2134L96.5638 45.7932C95.9334 45.2468 95.8495 44.2382 96.3957 43.6078L96.816 43.1455C97.1102 42.8094 97.5725 42.5993 97.9927 42.5993ZM97.9927 40.9182C97.0682 40.9182 96.1856 41.3385 95.5552 42.0109L95.135 42.4732C94.5886 43.1035 94.2945 43.9441 94.3365 44.8266C94.3786 45.6671 94.7988 46.4655 95.4291 47.0539L95.8914 47.4742C96.4798 47.9785 97.2363 48.2726 97.9927 48.2726C98.9173 48.2726 99.7998 47.8524 100.43 47.18L100.851 46.7177C101.397 46.0873 101.69 45.2468 101.649 44.3643C101.607 43.4818 101.186 42.7253 100.556 42.137L100.094 41.7167C99.5057 41.2124 98.7491 40.9182 97.9927 40.9182Z" fill="#272726"/>
<path d="M105.515 57.9805C104.59 57.9805 103.708 57.6443 102.994 57.0559L98.6231 53.2317C98.2868 52.9374 98.2449 52.3911 98.539 52.0549L105.053 44.5744C105.221 44.3643 105.473 44.2803 105.683 44.2803C105.894 44.2803 106.061 44.3644 106.229 44.4904L110.6 48.3147C112.197 49.7015 112.323 52.097 110.978 53.694L108.373 56.6777C107.659 57.5182 106.607 57.9805 105.515 57.9805Z" fill="#EF7822"/>
<path d="M105.726 45.1626L110.096 48.9869C111.315 50.0796 111.441 51.9287 110.39 53.1894L107.785 56.1731C107.196 56.8456 106.398 57.1818 105.557 57.1818C104.885 57.1818 104.17 56.9297 103.624 56.4674L99.2533 52.6431L105.726 45.1626ZM105.726 43.4816C105.683 43.4816 105.641 43.4816 105.6 43.4816C105.137 43.5236 104.759 43.7337 104.464 44.0699L97.9506 51.5083C97.3201 52.2228 97.4042 53.2735 98.1187 53.8618L102.49 57.6861C103.329 58.4426 104.422 58.8208 105.557 58.8208C106.902 58.8208 108.163 58.2324 109.045 57.2238L111.651 54.2401C112.449 53.3155 112.869 52.0967 112.786 50.878C112.701 49.6592 112.155 48.5246 111.189 47.6841L106.818 43.8598C106.524 43.6076 106.146 43.4816 105.726 43.4816Z" fill="#272726"/>
<path d="M51.9752 3.72593C52.2274 3.72593 52.4795 3.80998 52.6897 3.97808L63.7423 13.6439C67.1044 16.4595 71.0126 18.6029 74.921 20.6201C79.2076 22.8054 83.242 25.5371 86.8562 28.6889L110.096 48.9872C111.315 50.0798 111.441 51.9289 110.391 53.1897L107.785 56.1734C107.196 56.8459 106.398 57.1821 105.557 57.1821C104.885 57.1821 104.17 56.93 103.624 56.4677L80.3843 36.1694C76.7701 33.0176 73.5342 29.4034 70.7605 25.411C68.281 21.7968 65.5914 18.2667 62.3555 15.2829L51.2608 5.61707C50.8406 5.19682 50.7985 4.52442 51.1768 4.06214C51.3868 3.85201 51.6811 3.72593 51.9752 3.72593ZM51.9752 2.04492C51.1768 2.04492 50.4202 2.38112 49.874 3.0115C48.9074 4.14619 48.9915 5.86922 50.0841 6.87783C50.0841 6.87783 50.0841 6.87783 50.1261 6.91985L61.1787 16.5856C64.3727 19.5274 66.9782 23.0575 69.3317 26.4196C72.1474 30.496 75.4674 34.1942 79.2076 37.4722L102.447 57.7705C103.288 58.5269 104.381 58.9051 105.516 58.9051C106.861 58.9051 108.121 58.3168 109.004 57.3082L111.609 54.3243C112.408 53.3998 112.828 52.1811 112.743 50.9623C112.66 49.7436 112.113 48.609 111.147 47.7684L87.9068 27.4702C84.1666 24.1923 80.0481 21.4186 75.6354 19.1492C71.9792 17.3001 68.1549 15.1988 64.793 12.3831L53.7402 2.71732C53.7402 2.71732 53.7402 2.71732 53.6982 2.6753C53.278 2.25505 52.6477 2.04492 51.9752 2.04492Z" fill="#272726"/>
<path d="M54.7907 7.04574L52.0171 4.60828" stroke="white" stroke-width="1.16655" stroke-miterlimit="10" stroke-linecap="round" stroke-linejoin="round"/>
<path d="M57.06 6.625L54.4124 9.56677" stroke="#272726" stroke-width="1.5554" stroke-miterlimit="10" stroke-linecap="round" stroke-linejoin="round"/>
<path d="M87.2341 24.3602L87.1921 21.9647" stroke="#272726" stroke-width="1.5554" stroke-miterlimit="10" stroke-linecap="round" stroke-linejoin="round"/>
<path d="M91.5208 26.3355L93.2439 23.0576" stroke="#272726" stroke-width="1.5554" stroke-miterlimit="10" stroke-linecap="round" stroke-linejoin="round"/>
<path d="M94.3784 30.0336L96.1015 28.3105" stroke="#272726" stroke-width="1.5554" stroke-miterlimit="10" stroke-linecap="round" stroke-linejoin="round"/>
<path d="M98.5386 33.017L101.396 31.2939" stroke="#272726" stroke-width="1.5554" stroke-miterlimit="10" stroke-linecap="round" stroke-linejoin="round"/>
<path d="M115.072 84.0799C119.889 82.1866 123.017 78.6729 122.057 76.232C121.098 73.791 116.414 73.347 111.598 75.2404C106.78 77.1336 103.653 80.6473 104.612 83.0883C105.572 85.5292 110.255 85.9731 115.072 84.0799Z" fill="white" stroke="#272726" stroke-width="1.5554" stroke-miterlimit="10" stroke-linecap="round" stroke-linejoin="round"/>
<path d="M154.043 86.2226L121.005 75.1613L116.709 87.9938L149.747 99.0552L154.043 86.2226Z" fill="#EF7822" stroke="#272726" stroke-width="1.5554" stroke-miterlimit="10" stroke-linecap="round" stroke-linejoin="round"/>
<path d="M159.236 101.46C161.32 99.8672 160.46 95.2426 157.316 91.1309C154.172 87.0193 149.935 84.9776 147.851 86.5706C145.768 88.1636 146.628 92.7882 149.771 96.8999C152.915 101.011 157.152 103.053 159.236 101.46Z" fill="white" stroke="#272726" stroke-width="1.5554" stroke-miterlimit="10" stroke-linecap="round" stroke-linejoin="round"/>
<path d="M124.814 69.6508C126.594 69.0472 127.071 65.7069 125.878 62.1902C124.686 58.6733 122.276 56.3118 120.496 56.9155C118.715 57.5192 118.238 60.8595 119.431 64.3762C120.624 67.8929 123.033 70.2545 124.814 69.6508Z" fill="white" stroke="#272726" stroke-width="1.5554" stroke-miterlimit="10" stroke-linecap="round" stroke-linejoin="round"/>
<path d="M131.93 61.7398C133.165 58.2379 132.73 54.892 130.957 54.2665C129.184 53.6411 126.745 55.9728 125.51 59.4748C124.274 62.9767 124.71 66.3226 126.483 66.948C128.256 67.5735 130.694 65.2418 131.93 61.7398Z" fill="white" stroke="#272726" stroke-width="1.5554" stroke-miterlimit="10" stroke-linecap="round" stroke-linejoin="round"/>
<path d="M120.602 74.6223C121.905 74.3281 122.704 73.0253 122.409 71.7226C122.325 71.3023 122.115 70.9241 121.821 70.6299C122.956 70.2096 123.628 68.9909 123.376 67.7722C123.082 66.4694 121.778 65.6709 120.476 65.9651C120.35 66.0071 120.224 66.0491 120.14 66.0912C120.14 65.881 120.14 65.6709 120.098 65.4187C119.804 64.116 118.501 63.3175 117.198 63.6117C116.064 63.8639 115.307 64.9144 115.307 66.0071C114.929 65.923 114.551 65.881 114.131 66.0071C112.827 66.3013 112.029 67.6041 112.323 68.9069C112.533 69.7894 113.206 70.4198 114.005 70.6719C113.374 71.2603 113.079 72.1428 113.29 72.9833C113.584 74.2861 114.887 75.0846 116.19 74.7904C116.988 74.5803 117.618 74.034 117.913 73.3195C118.375 74.2861 119.509 74.8744 120.602 74.6223Z" fill="#EF7822" stroke="#272726" stroke-width="1.5554" stroke-miterlimit="10" stroke-linecap="round" stroke-linejoin="round"/>
<path d="M153.13 89.7512C155.652 89.1628 157.206 86.6412 156.618 84.1198C156.408 83.2793 156.03 82.5648 155.483 82.0185C157.669 81.22 159.014 78.8666 158.425 76.5552C157.836 74.0337 155.315 72.4788 152.794 73.0671C152.541 73.1091 152.331 73.1932 152.121 73.2772C152.121 72.857 152.121 72.4368 151.995 72.0165C151.407 69.495 148.885 67.94 146.364 68.5284C144.179 69.0327 142.708 71.0079 142.749 73.1511C142.036 72.9831 141.278 72.9411 140.522 73.1091C138 73.6975 136.446 76.219 137.034 78.7405C137.413 80.4216 138.715 81.6823 140.27 82.1446C139.093 83.2373 138.505 84.9603 138.926 86.6412C139.513 89.1628 142.035 90.7178 144.557 90.1294C146.112 89.7512 147.331 88.6585 147.835 87.2717C148.801 89.2048 150.944 90.2975 153.13 89.7512Z" fill="#EF7822" stroke="#272726" stroke-width="1.5554" stroke-miterlimit="10" stroke-linecap="round" stroke-linejoin="round"/>
<path d="M121.526 76.8071C122.2 79.3286 124.804 80.8416 127.327 80.2111C128.167 80.0011 128.881 79.5807 129.427 78.9924C130.31 81.2198 132.705 82.4805 135.059 81.8502C137.58 81.1777 139.093 78.5722 138.463 76.0506C138.421 75.7985 138.337 75.5884 138.211 75.3782C138.631 75.3782 139.052 75.3362 139.513 75.2102C142.036 74.5377 143.549 71.9322 142.918 69.4106C142.33 67.2253 140.312 65.7965 138.126 65.8805C138.295 65.1661 138.295 64.3676 138.085 63.6112C137.413 61.0896 134.807 59.5767 132.285 60.2071C130.562 60.6694 129.344 61.9722 128.923 63.5692C127.788 62.3924 126.023 61.8461 124.343 62.3083C121.821 62.9808 120.308 65.5863 120.939 68.1079C121.359 69.6628 122.493 70.8815 123.922 71.3858C121.989 72.3945 120.939 74.6218 121.526 76.8071Z" fill="#EF7822" stroke="#272726" stroke-width="1.5554" stroke-miterlimit="10" stroke-linecap="round" stroke-linejoin="round"/>
<path d="M137.202 132.28L101.985 120.514L110.432 86.1788L151.07 99.795L137.202 132.28Z" fill="white" stroke="#272726" stroke-width="1.5554" stroke-miterlimit="10" stroke-linecap="round" stroke-linejoin="round"/>
<path d="M152.374 103.998L106.902 88.7851C106.23 88.5329 105.852 87.8185 106.061 87.1041L107.491 82.8176C107.743 82.1451 108.457 81.7669 109.172 81.977L154.643 97.1902C155.315 97.4423 155.693 98.1568 155.483 98.8712L154.055 103.158C153.802 103.83 153.046 104.208 152.374 103.998Z" fill="white" stroke="#272726" stroke-width="1.5554" stroke-miterlimit="10" stroke-linecap="round" stroke-linejoin="round"/>
<path d="M121.616 83.9665C123.11 82.8246 122.491 79.5074 120.236 76.5574C117.981 73.6073 114.941 72.1415 113.448 73.2834C111.954 74.4253 112.572 77.7425 114.828 80.6926C117.083 83.6427 120.123 85.1084 121.616 83.9665Z" fill="white" stroke="#272726" stroke-width="1.5554" stroke-miterlimit="10" stroke-linecap="round" stroke-linejoin="round"/>
<path d="M126.082 87.0125C130.9 85.1192 134.027 81.6055 133.068 79.1646C132.108 76.7236 127.425 76.2796 122.608 78.173C117.791 80.0663 114.663 83.5799 115.623 86.0209C116.582 88.4618 121.265 88.9058 126.082 87.0125Z" fill="white" stroke="#272726" stroke-width="1.5554" stroke-miterlimit="10" stroke-linecap="round" stroke-linejoin="round"/>
<path d="M147.522 92.0472C149.606 90.4543 148.746 85.8297 145.602 81.718C142.458 77.6063 138.222 75.5645 136.138 77.1576C134.054 78.7506 134.914 83.3752 138.058 87.4869C141.202 91.5985 145.439 93.6403 147.522 92.0472Z" fill="white" stroke="#272726" stroke-width="1.5554" stroke-miterlimit="10" stroke-linecap="round" stroke-linejoin="round"/>
<path d="M132.496 72.6465C134.236 72.6465 135.648 71.2354 135.648 69.4947C135.648 67.7539 134.236 66.3428 132.496 66.3428C130.755 66.3428 129.344 67.7539 129.344 69.4947C129.344 71.2354 130.755 72.6465 132.496 72.6465Z" fill="white" stroke="#272726" stroke-width="1.5554" stroke-miterlimit="10" stroke-linecap="round" stroke-linejoin="round"/>
<path d="M149.431 81.2619C151.173 81.2619 152.583 79.8508 152.583 78.1101C152.583 76.3693 151.173 74.9581 149.431 74.9581C147.691 74.9581 146.28 76.3693 146.28 78.1101C146.28 79.8508 147.691 81.2619 149.431 81.2619Z" fill="white" stroke="#272726" stroke-width="1.5554" stroke-miterlimit="10" stroke-linecap="round" stroke-linejoin="round"/>
</g>
</g>
<defs>
<filter id="filter0_d_0_274" x="0.450439" y="0.5" width="176.759" height="144" filterUnits="userSpaceOnUse" color-interpolation-filters="sRGB">
<feFlood flood-opacity="0" result="BackgroundImageFix"/>
<feColorMatrix in="SourceAlpha" type="matrix" values="0 0 0 0 0 0 0 0 0 0 0 0 0 0 0 0 0 0 127 0" result="hardAlpha"/>
<feOffset dx="3" dy="3"/>
<feGaussianBlur stdDeviation="2"/>
<feComposite in2="hardAlpha" operator="out"/>
<feColorMatrix type="matrix" values="0 0 0 0 0 0 0 0 0 0 0 0 0 0 0 0 0 0 0.2 0"/>
<feBlend mode="normal" in2="BackgroundImageFix" result="effect1_dropShadow_0_274"/>
<feBlend mode="normal" in="SourceGraphic" in2="effect1_dropShadow_0_274" result="shape"/>
</filter>
<clipPath id="clip0_0_274">
<rect x="1.45044" y="1.5" width="168.759" height="136" rx="5" fill="white"/>
</clipPath>
</defs>
</svg>
