<svg xmlns="http://www.w3.org/2000/svg" viewBox="0 0 178 145"><defs><style>.cls-1{fill:#ffab6d;}.cls-2,.cls-5{fill:#fff;}.cls-3,.cls-4,.cls-6{fill:#ef7822;}.cls-4,.cls-5,.cls-6{stroke:#000;stroke-miterlimit:10;}.cls-5,.cls-6{stroke-width:2px;}</style></defs><g id="Layer_2" data-name="Layer 2"><g id="Layer_1-2" data-name="Layer 1"><rect class="cls-1" width="178" height="145"/><path d="M129,134.82c-1-.63-2-1.2-2.86-1.91-5.84-4.66-11.64-9.37-17.47-14a4.93,4.93,0,0,1-1.91-5.26c1.11-5.4,2.16-10.81,3.27-16.22a.87.87,0,0,0-.45-1.09c-1.19-.73-2.34-1.51-3.5-2.29-1.94-1.31-1.93-3.23,0-4.5,1.65-1.06,3.28-2.15,5-3.11a6.48,6.48,0,0,1,2.59-.81q11.77-.85,23.55-1.57c1-.06,1.49-.24,1.86-1.34A6.62,6.62,0,0,1,149,79.18a6.46,6.46,0,0,1,2.42,3.49c.09.24.15.5.25.83,3-.89,5.62-.59,7.51,2.09s1.61,5.27-.05,8a36,36,0,0,1,3.33,1.72,10.66,10.66,0,0,1,2.5,2.13c1.22,1.51,2.28,3.14,3.38,4.74,1.36,2,.63,3.73-1.72,4.19-1.22.25-2.45.5-3.69.69a.91.91,0,0,0-.88.86c-1.06,5.44-2.18,10.86-3.24,16.3a4.78,4.78,0,0,1-3.67,4c-7.49,2.15-15,4.34-22.47,6.49a22.3,22.3,0,0,1-2.42.43Zm-.15-3.25,5.84-29.17-.62.52-3.71,3.31a3.89,3.89,0,0,1-5.18.36l-11.9-7.82-.64-.4a2,2,0,0,0-.1.3q-1.59,7.9-3.17,15.8a2.13,2.13,0,0,0,.91,2.22q9,7.2,18,14.43A7.49,7.49,0,0,0,128.87,131.57Zm2.74.54c.25-.06.46-.09.66-.15q11.13-3.22,22.25-6.45a2.14,2.14,0,0,0,1.66-1.81c1-5.11,2-10.21,3-15.31,0-.19.06-.39.09-.64l-.9.15-14.27,2.7a3.86,3.86,0,0,1-4.54-2.29c-.67-1.38-1.33-2.77-2-4.15-.08-.16-.18-.3-.31-.51Zm34.53-28.42c-1.1-1.56-2.17-3-3.16-4.51A2.58,2.58,0,0,0,160.33,98c-4.19.38-8.38.73-12.56,1.1l-9.15.81c.12.27.2.48.3.69L142,107c.46,1,.79,1.14,1.85.93l13.08-2.47Zm-31.65-4.78-.33-.23q-9.66-5.06-19.33-10.11a2.18,2.18,0,0,0-2.29.12c-1.43.92-2.88,1.82-4.31,2.73a6.45,6.45,0,0,0-.55.39l3.47,2.29q7.75,5.1,15.5,10.2c.56.38,1.13.59,1.68.1C130.39,102.59,132.42,100.76,134.49,98.91Zm23.08-8.19c.67-3.4-1.61-5.54-4.54-4.73-.57.16-1.14.33-1.71.47a1.49,1.49,0,0,1-2-1.13c-.19-.63-.35-1.27-.53-1.91-.91-3.23-4.56-3.16-6.23-1.37a4.53,4.53,0,0,0-1.15,4.08A35,35,0,0,0,144.58,95a1,1,0,0,0,1.17.54c1.26-.15,2.55-.25,3.78-.52a48.07,48.07,0,0,0,5.32-1.47A4.08,4.08,0,0,0,157.57,90.72Zm-15.13,6-.33-.69A35.53,35.53,0,0,1,139,87.62c-.18-.78-.5-1-1.22-.93l-.43,0-16.82,1.12c-.28,0-.57.07-1,.11l.29.18,17,8.9a.94.94,0,0,0,.46.16C139,97.05,140.68,96.89,142.44,96.73Z"/><path d="M129.49,66a20.78,20.78,0,0,1,2.24-2.59C134.52,61,139,62,141,65.25a7.45,7.45,0,0,1,.07,7.65,34.6,34.6,0,0,1-5.52,8,2.82,2.82,0,0,1-3.06,1,32.11,32.11,0,0,1-10.13-4.8,7,7,0,0,1-2.19-8.75,6.14,6.14,0,0,1,8.33-2.91Zm3,13.16c.79.23.82.26,1.25-.24A30.41,30.41,0,0,0,139,70.76a4.22,4.22,0,0,0-.87-4.75,3.45,3.45,0,0,0-5.58.43c-.37.61-.71,1.23-1.07,1.84a1.54,1.54,0,0,1-2.38.64c-.56-.31-1.08-.69-1.66-1A3.59,3.59,0,0,0,122.2,71a4.71,4.71,0,0,0,2.64,4.52A37.37,37.37,0,0,0,132.54,79.12Z"/><path class="cls-2" d="M128.87,131.57a7.49,7.49,0,0,1-.61-.45q-9-7.22-18-14.43a2.13,2.13,0,0,1-.91-2.22q1.58-7.91,3.17-15.8a2,2,0,0,1,.1-.3l.64.4,11.9,7.82a3.89,3.89,0,0,0,5.18-.36l3.71-3.31.62-.52Z"/><path class="cls-2" d="M131.61,132.11l5.7-28.46c.13.21.23.35.31.51.66,1.38,1.32,2.77,2,4.15a3.86,3.86,0,0,0,4.54,2.29l14.27-2.7.9-.15c0,.25,0,.45-.09.64-1,5.1-2,10.2-3,15.31a2.14,2.14,0,0,1-1.66,1.81q-11.13,3.21-22.25,6.45C132.07,132,131.86,132.05,131.61,132.11Z"/><path class="cls-3" d="M166.14,103.69l-9.23,1.74-13.08,2.47c-1.06.21-1.39,0-1.85-.93l-3.06-6.4c-.1-.21-.18-.42-.3-.69l9.15-.81c4.18-.37,8.37-.72,12.56-1.1A2.58,2.58,0,0,1,163,99.18C164,100.68,165,102.13,166.14,103.69Z"/><path class="cls-3" d="M134.49,98.91c-2.07,1.85-4.1,3.68-6.16,5.49-.55.49-1.12.28-1.68-.1q-7.74-5.11-15.5-10.2l-3.47-2.29a6.45,6.45,0,0,1,.55-.39c1.43-.91,2.88-1.81,4.31-2.73a2.18,2.18,0,0,1,2.29-.12q9.67,5,19.33,10.11Z"/><path class="cls-3" d="M157.57,90.72a4.08,4.08,0,0,1-2.72,2.82A48.07,48.07,0,0,1,149.53,95c-1.23.27-2.52.37-3.78.52a1,1,0,0,1-1.17-.54,35,35,0,0,1-3.13-8.86,4.53,4.53,0,0,1,1.15-4.08c1.67-1.79,5.32-1.86,6.23,1.37.18.64.34,1.28.53,1.91a1.49,1.49,0,0,0,2,1.13c.57-.14,1.14-.31,1.71-.47C156,85.18,158.24,87.32,157.57,90.72Z"/><path class="cls-2" d="M142.44,96.73c-1.76.16-3.45.32-5.13.45a.94.94,0,0,1-.46-.16l-17-8.9-.29-.18c.39,0,.68-.09,1-.11l16.82-1.12.43,0c.72-.1,1,.15,1.22.93A35.53,35.53,0,0,0,142.11,96Z"/><path class="cls-3" d="M132.54,79.12a37.37,37.37,0,0,1-7.7-3.56A4.71,4.71,0,0,1,122.2,71,3.59,3.59,0,0,1,127.46,68c.58.28,1.1.66,1.66,1a1.54,1.54,0,0,0,2.38-.64c.36-.61.7-1.23,1.07-1.84a3.45,3.45,0,0,1,5.58-.43,4.22,4.22,0,0,1,.87,4.75,30.41,30.41,0,0,1-5.23,8.12C133.36,79.38,133.33,79.35,132.54,79.12Z"/><path class="cls-4" d="M94.07,34.49,100,35.92a11.3,11.3,0,0,1-2.45,2.26,2.47,2.47,0,0,1-2.31-.58A11.32,11.32,0,0,1,94.07,34.49Z"/><path class="cls-5" d="M14.25,89.73l84.42-14c-.18,2.71-.35,5.36-.52,8l-1.65,24.2a5.93,5.93,0,0,1-5.14,5.69q-29,4.85-57.95,9.65a5.92,5.92,0,0,1-6.63-3.56q-6.13-14.61-12.26-29.23C14.43,90.23,14.35,90,14.25,89.73ZM38.72,113.4c-.17-.6-.36-1.25-.55-1.9-1.5-5.1-3-10.19-4.49-15.28a2.1,2.1,0,0,0-2.77-1.53,2,2,0,0,0-1.21,2.94l3.63,8.75,3.21,7.68a1.13,1.13,0,0,0,1.51.75A1,1,0,0,0,38.72,113.4Zm48.2-26.07a6.2,6.2,0,0,0-.64-1A2.09,2.09,0,0,0,83.86,86a2,2,0,0,0-1.24,2.24l.78,17.51c0,.91.45,1.4,1.16,1.39s1.11-.53,1.17-1.42l.81-12.46C86.67,91.3,86.79,89.38,86.92,87.33Zm-16,11.8h0c.48,2.85,1,5.7,1.42,8.55.11.7.38,1.19,1.19,1.15s1-.53,1-1.41-.07-1.59-.1-2.38c-.19-5-.36-10-.56-14.93a2.09,2.09,0,0,0-2.4-2.22,2.13,2.13,0,0,0-1.9,2.69C70,93.44,70.47,96.29,70.94,99.13Zm-22.57,3.64h-.08l-1.41-8.46a2.12,2.12,0,0,0-2.68-1.89,2.09,2.09,0,0,0-1.51,2.89c.91,3.05,1.81,6.1,2.73,9.15.76,2.54,1.54,5.07,2.3,7.61a1,1,0,0,0,1.27.84,1,1,0,0,0,.85-1.25c0-.27-.08-.53-.12-.79Zm12.7-2.12h0c-.33-2.87-.65-5.74-1-8.6a1.88,1.88,0,0,0-1.74-1.82,2,2,0,0,0-2.27,2.58c1.23,5.64,2.49,11.28,3.74,16.91.2,1,.64,1.33,1.34,1.21s1-.63.88-1.58Z"/><path class="cls-6" d="M49.53,71.29c.25,1.12.49,2.15.71,3.18a5,5,0,0,0,5.6,4A4.92,4.92,0,0,0,60,73c-.07-.87-.15-1.75-.3-2.61-.12-.65.06-.89.73-1,4.35-.69,8.68-1.43,13-2.15l27.37-4.55c2-.33,2.79.29,3,2.3.14,1.17.27,2.34.36,3.51a2.86,2.86,0,0,1-2.4,3.2c-.33.07-.66.11-1,.16l-90,15c-2.26.38-3.47-.46-3.95-2.72-.22-1-.49-2-.71-3.08-.36-1.71.28-2.64,2-2.93l27.9-4.65,12.66-2.1C49,71.34,49.2,71.33,49.53,71.29Z"/><path class="cls-5" d="M31.55,59.49A4.68,4.68,0,0,0,29.63,56c-.35-.25-.84-.51-.44-1,.15-.17.77-.1,1.07.06a8.94,8.94,0,0,1,1.34,1.07c.1-.52.19-1,.28-1.37.69-3.2,2.9-4.71,6.19-5.14.79-.1,1.24.45,1.12,1.44A6.81,6.81,0,0,1,34.91,57a25.88,25.88,0,0,1-2.56.77l.36,1.44L36.47,58l.42-.16c3.7-1.15,6-.31,8.06,3a14,14,0,0,1,1.6,9.84c0,.26-.54.58-.87.64-3.41.6-6.83,1.16-10.25,1.72-4.27.71-8.55,1.41-12.82,2.15a1,1,0,0,1-1.31-.69c-1.42-3-2.23-6.19-1.42-9.54,1-3.94,2.91-5.4,7-5.4C28.36,59.58,29.89,59.52,31.55,59.49ZM22.81,70.08l.84.92A3.37,3.37,0,0,0,24,69.85a9.84,9.84,0,0,1,.79-5c.14-.3,0-.73,0-1.1-.3.22-.74.38-.89.67A11.61,11.61,0,0,0,22.81,70.08Z"/><path class="cls-5" d="M79.06,65.75,63.88,68.27A30.45,30.45,0,0,0,63.12,64a48.1,48.1,0,0,0-2.43-6A14.42,14.42,0,0,1,59,49.86c0-.12,0-.24,0-.36.34-2.27.48-2.41,2.73-2.79C66.18,46,70.59,45.26,75,44.5a1.27,1.27,0,0,1,1.44.59A11.94,11.94,0,0,1,78.67,53c-.13,2.16-.47,4.31-.61,6.47a14.17,14.17,0,0,0,.9,5.68A3.54,3.54,0,0,1,79.06,65.75Z"/><path class="cls-6" d="M56.42,54.68q1,9.2,2.09,18.4a3.41,3.41,0,0,1-2.13,3.69,3.27,3.27,0,0,1-4.06-1.26,11.22,11.22,0,0,1-1-3.16c-2.49-11.35-5-22.72-7.45-34.07-.18-.81-.06-1.27.73-1.64A15.5,15.5,0,0,1,53,35.19a1.36,1.36,0,0,1,1.43,1.44c.64,6,1.35,12,2,18Zm.17,18.91a1.46,1.46,0,1,0-1.28,1.64A1.41,1.41,0,0,0,56.59,73.59Z"/><path class="cls-5" d="M22.08,75.36c-2.35.39-4.61.77-6.87,1.12a.72.72,0,0,1-.61-.33c-.66-1.5-1.28-3-1.88-4.45,1-.85,1.89-1.57,2.69-2.41a6.58,6.58,0,0,0,1.83-3.94c.21-2.28-1.08-3.31-3.22-2.56-1.3.46-2.58,1-4,1.49C9.6,63,9.21,61.9,8.91,60.76c-.05-.2.26-.56.48-.74A6.89,6.89,0,0,0,12,56a5.12,5.12,0,0,0,0-2,1.55,1.55,0,0,0-1.6-1.34A20.26,20.26,0,0,0,7.69,53c-.48.07-.77,0-.79-.55-.1-2.19-.26-4.38-.27-6.56a5.43,5.43,0,0,1,.6-2.16,3,3,0,0,1,4.51-1.39,10.18,10.18,0,0,1,2.39,2.15A37.26,37.26,0,0,1,19.06,53c1,2.13,1.88,4.3,2.84,6.44a1.6,1.6,0,0,1-.1,1.67c-2.19,3.61-2.15,7.42-.87,11.31C21.25,73.35,21.67,74.29,22.08,75.36Z"/><path class="cls-5" d="M81.81,65.24c.42-1.77.81-3.46,1.21-5.15l3.09-12.91a7.34,7.34,0,1,1,14.28,3.38c-.9,3.81-1.8,7.62-2.74,11.42a1.27,1.27,0,0,1-.72.82c-4.93.86-9.86,1.67-14.79,2.48A1.5,1.5,0,0,1,81.81,65.24ZM92.67,44.36,92.61,44a2.59,2.59,0,0,0-1-.05,5.3,5.3,0,0,0-3.49,3.74c-.49,1.86-.92,3.74-1.33,5.62-.06.3.15.66.23,1,.22-.26.57-.49.65-.79.42-1.57.82-3.14,1.13-4.74a4.92,4.92,0,0,1,3.24-4A2.8,2.8,0,0,0,92.67,44.36Z"/><path class="cls-5" d="M63.68,33.41l4.43-.73a13.69,13.69,0,0,0,5.57,9l-12.31,2A13.68,13.68,0,0,0,63.68,33.41Z"/><path class="cls-4" d="M61.3,30.71c-.15-.9-.33-1.78-.41-2.67a.86.86,0,0,1,.53-.64c2.31-.43,4.62-.81,7-1.15a.92.92,0,0,1,.71.54c.22.81.31,1.65.46,2.55Z"/><path class="cls-4" d="M11.94,70.71l-1.8-4.83c1.61-.58,3.15-1.15,4.7-1.69.64-.23,1.06.11,1,.72a7.68,7.68,0,0,1-.48,2.34A7.36,7.36,0,0,1,11.94,70.71Z"/><path class="cls-4" d="M8.55,59.58,7.38,54.79a30.93,30.93,0,0,1,3.08-.48c.73-.05.82.61.77,1.17C11.09,57.23,10.07,58.44,8.55,59.58Z"/><path class="cls-4" d="M38.75,113.59c.17.71,0,1.21-.67,1.43a1.12,1.12,0,0,1-1.51-.76c-1.08-2.62-2.16-5.23-3.23-7.85q-1.85-4.47-3.67-8.94a2.07,2.07,0,0,1,1.2-3A2.12,2.12,0,0,1,33.65,96c1.53,5.2,3,10.41,4.54,15.61C38.38,112.32,38.57,113,38.75,113.59Z"/><path class="cls-4" d="M86.92,87.15c-.12,2.1-.24,4-.36,6q-.37,6.36-.77,12.71c-.06.91-.49,1.44-1.17,1.45s-1.11-.5-1.16-1.43Q83,97,82.62,88a2.08,2.08,0,0,1,1.24-2.29,2.05,2.05,0,0,1,2.41.39A5.45,5.45,0,0,1,86.92,87.15Z"/><path class="cls-4" d="M70.94,99.15c-.48-2.91-1-5.82-1.44-8.73a2.16,2.16,0,0,1,1.89-2.74A2.13,2.13,0,0,1,73.8,90c.22,5.08.41,10.16.61,15.24,0,.81.08,1.62.11,2.43s-.3,1.41-1,1.44-1.08-.47-1.19-1.18c-.47-2.91-1-5.82-1.45-8.73Z"/><path class="cls-4" d="M48.31,102.78l1.38,8.28c0,.27.09.53.12.8a1,1,0,0,1-.85,1.27,1,1,0,0,1-1.27-.85c-.77-2.6-1.56-5.18-2.33-7.78-.93-3.11-1.84-6.23-2.76-9.34a2.18,2.18,0,1,1,4.18-1c.49,2.88,1,5.76,1.44,8.64Z"/><path class="cls-4" d="M61,100.66l1,8.88c.11,1-.18,1.5-.87,1.61s-1.14-.28-1.35-1.24C58.5,104.15,57.22,98.4,56,92.64A2,2,0,0,1,58.23,90,1.89,1.89,0,0,1,60,91.88c.36,2.92.69,5.85,1,8.78Z"/><path class="cls-3" d="M22.81,69.82a11.55,11.55,0,0,1,1.05-5.67c.15-.3.59-.46.89-.68,0,.37.15.8,0,1.1a9.84,9.84,0,0,0-.79,5,3.31,3.31,0,0,1-.32,1.15Z"/><path class="cls-2" d="M57.49,74.22a2.22,2.22,0,1,1-2.58-1.85A2.17,2.17,0,0,1,57.49,74.22Z"/><path class="cls-3" d="M92.67,43.36a2.8,2.8,0,0,1-.58.43,4.92,4.92,0,0,0-3.24,4c-.31,1.6-.71,3.17-1.13,4.74-.08.3-.43.53-.65.79-.08-.33-.29-.69-.23-1,.41-1.88.84-3.76,1.33-5.62A5.3,5.3,0,0,1,91.66,43a2.59,2.59,0,0,1,1,.05Z"/></g></g></svg>