<svg width="179" height="144" viewBox="0 0 179 144" fill="none" xmlns="http://www.w3.org/2000/svg">
<g filter="url(#filter0_d_145_511)">
<g clip-path="url(#clip0_145_511)">
<path d="M210.422 128.779C208.665 115.843 203.135 103.869 196.774 92.5213C185.894 73.1576 181.428 60.2565 181.035 38.116C179.916 -25.1178 119.354 -72.0167 54.3568 -69.5488C-22.8686 -66.674 -63.8352 3.86486 -40.633 71.5315C-16.535 141.762 56.5864 189.429 130.474 199.787C131.521 199.973 132.439 199.879 133.428 199.883C147.962 203.234 162.795 202.859 177.821 194.79C201.493 182.158 213.879 154.469 210.422 128.779Z" fill="#FFAB6D"/>
<path d="M143.759 68.2449L108.859 75.1984V21.4873L143.983 31.4717C146.033 31.8729 147.504 33.6558 147.504 35.7508V63.9213C147.504 66.1054 145.899 67.9329 143.759 68.2449Z" fill="white" stroke="#222221" stroke-width="1.64615" stroke-miterlimit="10" stroke-linecap="round" stroke-linejoin="round"/>
<path d="M119.467 38.2029L136.895 43.1951V53.9819L119.467 57.4586V38.2029Z" fill="white" stroke="#222221" stroke-width="1.64615" stroke-miterlimit="10" stroke-linecap="round" stroke-linejoin="round"/>
<path d="M73.9579 68.2449L108.859 75.1984V21.4873L73.7351 27.7722C71.6847 28.1733 70.2138 29.9563 70.2138 32.0512V63.9659C70.1692 66.1054 71.7738 67.9329 73.9579 68.2449Z" fill="white" stroke="#222221" stroke-width="1.64615" stroke-miterlimit="10" stroke-linecap="round" stroke-linejoin="round"/>
<path d="M82.2483 69.6721L95.0409 72.2128V54.5171C95.0409 53.4028 94.1494 52.4667 92.9906 52.4221L82.1146 52.1101C81.3568 52.2438 80.822 52.9125 80.822 53.6703V68.0675C80.8666 68.9143 81.446 69.583 82.2483 69.6721Z" fill="white" stroke="#222221" stroke-width="1.64615" stroke-miterlimit="10" stroke-linecap="round" stroke-linejoin="round"/>
<path d="M72.665 26.7473L58.3569 42.3035L68.2076 41.9023L81.7134 25.4102L72.665 26.7473Z" fill="#EF7822" stroke="#222221" stroke-width="1.64615" stroke-miterlimit="10" stroke-linecap="round" stroke-linejoin="round"/>
<path d="M81.7135 25.4105L68.2078 41.9028L78.1476 41.5016L90.7619 24.1179L81.7135 25.4105Z" fill="white" stroke="#222221" stroke-width="1.64615" stroke-miterlimit="10" stroke-linecap="round" stroke-linejoin="round"/>
<path d="M108.859 21.4883L99.8104 22.781L87.9539 41.1452L98.072 40.6995L108.859 21.4883Z" fill="white" stroke="#222221" stroke-width="1.64615" stroke-miterlimit="10" stroke-linecap="round" stroke-linejoin="round"/>
<path d="M90.762 24.1174L78.1477 41.5011L87.9538 41.1445L99.8104 22.7803L90.762 24.1174Z" fill="#EF7822" stroke="#222221" stroke-width="1.64615" stroke-miterlimit="10" stroke-linecap="round" stroke-linejoin="round"/>
<path d="M104.535 5.61932L75.8744 11.9933C74.0468 12.2607 72.665 13.8209 72.665 15.693V26.7918L108.815 21.4429V9.31892C108.859 7.04567 106.808 5.3073 104.535 5.61932Z" fill="white" stroke="#222221" stroke-width="1.64615" stroke-miterlimit="10" stroke-linecap="round" stroke-linejoin="round"/>
<path d="M137.609 82.5086C136.36 82.5086 135.335 81.4834 135.335 80.2354V73.4156C135.335 73.2819 135.246 73.1927 135.113 73.1927C135.023 73.1927 134.934 73.1927 134.845 73.1927L127 72.2122C126.91 72.2568 126.821 72.3459 126.821 72.435V79.3439C126.821 80.592 125.796 81.6171 124.548 81.6171C123.301 81.6171 122.275 80.592 122.275 79.3439V72.435C122.275 69.8052 124.415 67.6211 127.089 67.6211C127.178 67.6211 127.267 67.6211 127.356 67.6211L135.291 68.6462C137.876 68.7354 139.926 70.8749 139.926 73.4602V80.28C139.926 81.4834 138.901 82.5086 137.609 82.5086Z" fill="#EF7822" stroke="#222221" stroke-width="1.64615" stroke-miterlimit="10" stroke-linecap="round" stroke-linejoin="round"/>
<path d="M150.446 81.3058C149.197 81.3058 148.172 80.2806 148.172 79.0326V72.2128C148.172 72.0791 148.083 71.9899 147.95 71.9899C147.86 71.9899 147.771 71.9899 147.682 71.9899L139.837 71.0093C139.749 71.0539 139.659 71.143 139.659 71.2321V78.0519C139.659 79.3 138.634 80.3251 137.385 80.3251C136.138 80.3251 135.112 79.3 135.112 78.0519V71.1431C135.112 68.5132 137.252 66.3291 139.926 66.3291C140.015 66.3291 140.104 66.3291 140.194 66.3291L148.128 67.3542C150.714 67.4434 152.763 69.5829 152.763 72.1682V78.988C152.719 80.2806 151.694 81.3058 150.446 81.3058Z" fill="#EF7822" stroke="#222221" stroke-width="1.64615" stroke-miterlimit="10" stroke-linecap="round" stroke-linejoin="round"/>
<path d="M163.907 127.261L126.555 130.827L128.338 76.5808L161.233 79.7009L163.907 127.261Z" fill="white" stroke="#222221" stroke-width="1.64615" stroke-miterlimit="10" stroke-linecap="round" stroke-linejoin="round"/>
<path d="M126.555 130.827L111.667 126.102L115.812 80.1467L128.338 76.5808L126.555 130.827Z" fill="white" stroke="#222221" stroke-width="1.64615" stroke-miterlimit="10" stroke-linecap="round" stroke-linejoin="round"/>
<path d="M64.3745 129.356C64.954 132.788 70.4365 134.749 76.6322 133.768C82.8279 132.743 87.419 129.133 86.8842 125.701L85.1011 114.735L62.5916 118.39L64.3745 129.356Z" fill="white" stroke="#222221" stroke-width="1.64615" stroke-miterlimit="10" stroke-linecap="round" stroke-linejoin="round"/>
<path d="M72.3529 107.47C55.6378 110.189 41.0176 106.534 38.8335 99.2688C38.8781 99.8929 38.9672 100.561 39.1009 101.186C41.9091 118.525 58.2676 130.337 75.6512 127.484C92.9904 124.676 104.803 108.317 101.949 90.9336C101.86 90.3095 101.727 89.6855 101.593 89.0615C101.816 96.639 89.1125 104.751 72.3529 107.47Z" fill="white" stroke="#222221" stroke-width="1.64615" stroke-miterlimit="10" stroke-linecap="round" stroke-linejoin="round"/>
<path d="M101.504 88.2143C101.37 87.4566 101.103 86.6988 100.746 86.0302C101.059 87.0108 101.37 88.036 101.593 89.1058C101.549 88.7937 101.549 88.4817 101.504 88.2143Z" fill="white" stroke="#222221" stroke-width="1.64615" stroke-miterlimit="10" stroke-linecap="round" stroke-linejoin="round"/>
<path d="M38.6554 98.4213C38.7 98.6887 38.7891 99.0007 38.8783 99.2682C38.7891 98.1985 38.7 97.1287 38.7 96.1035C38.5217 96.8612 38.5217 97.6636 38.6554 98.4213Z" fill="white" stroke="#222221" stroke-width="1.64615" stroke-miterlimit="10" stroke-linecap="round" stroke-linejoin="round"/>
<path d="M72.3529 107.469C89.068 104.75 101.771 96.6383 101.549 89.0608C101.325 88.0356 101.014 87.0105 100.702 85.9852C97.1803 79.6112 83.4071 76.5803 67.7618 79.121C52.1165 81.6616 39.9925 88.9271 38.6553 96.0589C38.6553 97.1286 38.6998 98.1539 38.8336 99.2236C41.0177 106.533 55.6379 110.188 72.3529 107.469Z" fill="white" stroke="#222221" stroke-width="1.64615" stroke-miterlimit="10" stroke-linecap="round" stroke-linejoin="round"/>
<path d="M72.3529 107.47C55.6378 110.189 41.0176 106.534 38.8335 99.2688C38.8781 99.8929 38.9672 100.561 39.1009 101.186C41.9091 118.525 58.2676 130.337 75.6512 127.484C92.9904 124.676 104.803 108.317 101.949 90.9336C101.86 90.3095 101.727 89.6855 101.593 89.0615C101.816 96.639 89.1125 104.751 72.3529 107.47Z" stroke="#222221" stroke-width="1.64615" stroke-miterlimit="10" stroke-linecap="round" stroke-linejoin="round"/>
<path d="M82.2483 76.5362C76.6766 73.3715 67.9402 78.23 62.7251 87.4122C59.5604 92.9838 61.477 100.026 67.0488 103.191C72.6204 106.356 79.6631 104.439 82.8277 98.8675C88.0429 89.6854 87.82 79.701 82.2483 76.5362Z" fill="white" stroke="#222221" stroke-width="1.64615" stroke-miterlimit="10" stroke-linecap="round" stroke-linejoin="round"/>
<path d="M72.5315 99.5363C75.8056 99.5363 78.4598 96.8821 78.4598 93.6081C78.4598 90.334 75.8056 87.6798 72.5315 87.6798C69.2574 87.6798 66.6033 90.334 66.6033 93.6081C66.6033 96.8821 69.2574 99.5363 72.5315 99.5363Z" fill="#EF7822" stroke="#222221" stroke-width="1.64615" stroke-miterlimit="10" stroke-linecap="round" stroke-linejoin="round"/>
<path d="M97.448 78.5869C91.8763 75.4221 83.1399 80.2807 77.9249 89.4628C74.8938 94.8116 76.543 101.497 81.5799 104.841C81.8028 104.974 82.0256 105.108 82.2039 105.242C87.7756 108.407 94.8182 106.49 97.9829 100.918C98.5178 99.9822 98.9636 99.0907 99.3646 98.1546C103.153 89.8193 102.44 81.4395 97.448 78.5869Z" fill="white" stroke="#222221" stroke-width="1.64615" stroke-miterlimit="10" stroke-linecap="round" stroke-linejoin="round"/>
<path d="M87.731 101.586C91.0051 101.586 93.6592 98.9318 93.6592 95.6577C93.6592 92.3837 91.0051 89.7295 87.731 89.7295C84.4569 89.7295 81.8027 92.3837 81.8027 95.6577C81.8027 98.9318 84.4569 101.586 87.731 101.586Z" fill="#EF7822" stroke="#222221" stroke-width="1.64615" stroke-miterlimit="10" stroke-linecap="round" stroke-linejoin="round"/>
<path d="M38.8337 99.2687C41.0178 106.535 55.6379 110.19 72.353 107.471C89.068 104.752 101.771 96.639 101.549 89.0614" stroke="#222221" stroke-width="1.64615" stroke-miterlimit="10" stroke-linecap="round" stroke-linejoin="round"/>
<path d="M51.8939 107.514C51.8939 107.514 49.4423 103.726 53.1865 101.275C56.9306 98.8228 61.4326 95.6135 61.4326 95.6135L56.9306 98.7782" stroke="#222221" stroke-width="1.64615" stroke-miterlimit="10" stroke-linecap="round" stroke-linejoin="round"/>
<path d="M40.9287 102.566C40.9287 102.566 39.4577 99.3125 43.8259 96.8611C48.1941 94.4095 54.7464 90.6207 54.7464 90.6207C54.7464 90.6207 58.9363 88.0801 61.4325 91.1556" stroke="#222221" stroke-width="1.64615" stroke-miterlimit="10" stroke-linecap="round" stroke-linejoin="round"/>
<path d="M44.361 96.193C43.9598 93.6523 47.08 93.1619 46.6788 90.6212C46.2776 88.0805 43.1575 88.6154 42.7118 86.0747C42.3106 83.5341 45.4308 83.0438 45.0296 80.503C44.6284 77.9623 41.5082 78.4972 41.0626 75.9565C40.6614 73.4158 43.7815 72.9256 43.3804 70.3849" stroke="#222221" stroke-width="1.64615" stroke-miterlimit="10" stroke-linecap="round" stroke-linejoin="round"/>
<path d="M55.1926 89.1055C54.7914 86.5648 51.6712 87.0997 51.2255 84.559C50.8243 82.0183 53.9444 81.528 53.5433 78.9873C53.1422 76.4466 50.022 76.9815 49.5762 74.4408C49.1751 71.9001 52.2952 71.4098 51.8941 68.8691" stroke="#222221" stroke-width="1.64615" stroke-miterlimit="10" stroke-linecap="round" stroke-linejoin="round"/>
<path d="M56.7076 69.7609L8.65739 79.2551C6.9636 79.6117 5.31437 78.4973 4.95778 76.759C4.6012 75.0652 5.71554 73.416 7.4539 73.0594C7.49847 73.0594 7.58762 73.0148 7.6322 73.0148L56.1727 66.4625C57.1088 66.3288 57.9557 66.9974 58.0448 67.8888C58.1785 68.7803 57.5991 69.6273 56.7076 69.7609Z" fill="white" stroke="#222221" stroke-width="1.64615" stroke-miterlimit="10" stroke-linecap="round" stroke-linejoin="round"/>
<path d="M54.9693 63.521L5.98308 63.7438C4.24471 63.7438 2.81836 62.3621 2.81836 60.6238C2.81836 58.8853 4.20014 57.459 5.9385 57.459C5.98308 57.459 6.07223 57.459 6.1168 57.459L55.0139 60.178C55.95 60.2226 56.6632 61.0248 56.6186 61.9609C56.574 62.8079 55.8163 63.521 54.9693 63.521Z" fill="white" stroke="#222221" stroke-width="1.64615" stroke-miterlimit="10" stroke-linecap="round" stroke-linejoin="round"/>
<path d="M144.34 25.4103L146.123 18.8135" stroke="#222221" stroke-width="1.64615" stroke-miterlimit="10" stroke-linecap="round" stroke-linejoin="round"/>
<path d="M151.872 30.8483L160.92 25.455" stroke="#222221" stroke-width="1.64615" stroke-miterlimit="10" stroke-linecap="round" stroke-linejoin="round"/>
<path d="M153.433 40.0303L159.94 42.3926" stroke="#222221" stroke-width="1.64615" stroke-miterlimit="10" stroke-linecap="round" stroke-linejoin="round"/>
<path d="M72.353 107.471C55.6379 110.19 41.0178 106.535 38.8337 99.2687C38.8783 99.8928 38.9675 100.561 39.1012 101.186C41.9093 118.525 58.2678 130.337 75.6515 127.484C92.9905 124.675 104.803 108.317 101.95 90.9335C101.861 90.3095 101.727 89.6855 101.593 89.0614C101.816 96.639 89.1126 104.752 72.353 107.471Z" fill="white" stroke="#222221" stroke-width="1.64615" stroke-miterlimit="10" stroke-linecap="round" stroke-linejoin="round"/>
<path d="M100.033 106.489C100.301 105.598 100.613 104.707 100.835 103.815C100.524 103.815 100.212 103.904 99.8997 104.127C91.1633 110.145 82.4269 114.424 73.735 115.85C64.954 117.276 55.2816 115.939 45.0296 112.997C44.4948 112.819 43.9153 112.953 43.5142 113.309V113.354C43.9153 114.246 44.1828 114.513 44.8514 115.226C45.3417 115.761 45.832 116.296 46.2777 116.875C56.173 119.505 65.5781 120.62 74.2254 119.193C82.5606 117.855 90.8958 114.022 99.2311 108.584C99.4985 107.826 99.8105 107.158 100.033 106.489Z" fill="#EF7822"/>
<path d="M72.353 107.471C55.6379 110.19 41.0178 106.535 38.8337 99.2687C38.8783 99.8928 38.9675 100.561 39.1012 101.186C41.9093 118.525 58.2678 130.337 75.6515 127.484C92.9905 124.675 104.803 108.317 101.95 90.9335C101.861 90.3095 101.727 89.6855 101.593 89.0614C101.816 96.639 89.1126 104.752 72.353 107.471Z" stroke="#222221" stroke-width="1.64615" stroke-miterlimit="10" stroke-linecap="round" stroke-linejoin="round"/>
</g>
</g>
<defs>
<filter id="filter0_d_145_511" x="0.830078" y="0.791016" width="178" height="142.419" filterUnits="userSpaceOnUse" color-interpolation-filters="sRGB">
<feFlood flood-opacity="0" result="BackgroundImageFix"/>
<feColorMatrix in="SourceAlpha" type="matrix" values="0 0 0 0 0 0 0 0 0 0 0 0 0 0 0 0 0 0 127 0" result="hardAlpha"/>
<feOffset dx="3" dy="3"/>
<feGaussianBlur stdDeviation="2"/>
<feComposite in2="hardAlpha" operator="out"/>
<feColorMatrix type="matrix" values="0 0 0 0 0 0 0 0 0 0 0 0 0 0 0 0 0 0 0.2 0"/>
<feBlend mode="normal" in2="BackgroundImageFix" result="effect1_dropShadow_145_511"/>
<feBlend mode="normal" in="SourceGraphic" in2="effect1_dropShadow_145_511" result="shape"/>
</filter>
<clipPath id="clip0_145_511">
<rect x="1.83008" y="1.79102" width="170" height="134.419" rx="5" fill="white"/>
</clipPath>
</defs>
</svg>
