<svg width="168" height="116" viewBox="0 0 168 116" fill="none" xmlns="http://www.w3.org/2000/svg">
<path d="M153.79 50.1498C153.79 66.2024 144.57 78.4235 131.005 87.743C117.431 97.0684 99.5903 103.423 82.5835 107.724C65.7344 111.98 53.1375 108.292 44.7347 99.6244C36.2961 90.9193 31.9719 77.0742 31.9719 60.8093C31.9719 44.6214 38.6154 28.4832 49.2697 17.1386C59.9176 5.80075 74.5233 -0.707015 90.4798 2.21985C106.71 5.19699 122.567 9.15099 134.358 16.3951C146.101 23.6096 153.79 34.0679 153.79 50.1498Z" fill="#EF7822" stroke="#E9F8F5" stroke-width="1.3843"/>
<path d="M74.309 21.0311L71.3845 19.1503" stroke="#E9F8F5" stroke-width="2.91278" stroke-linecap="round" stroke-linejoin="round"/>
<path d="M78.8934 16.9433L77.2805 13.7928" stroke="#E9F8F5" stroke-width="2.91278" stroke-linecap="round" stroke-linejoin="round"/>
<path d="M84.9028 15.574L85.0208 12.127" stroke="#E9F8F5" stroke-width="2.91278" stroke-linecap="round" stroke-linejoin="round"/>
<path d="M90.7793 17.4635L92.6601 14.5391" stroke="#E9F8F5" stroke-width="2.91278" stroke-linecap="round" stroke-linejoin="round"/>
<mask id="path-6-inside-1_0_423" fill="white">
<path d="M80.3132 38.4055C80.3132 36.1083 79.4007 33.9053 77.7764 32.281C76.1521 30.6567 73.949 29.7441 71.6519 29.7441C69.3548 29.7441 67.1517 30.6567 65.5274 32.281C63.9031 33.9053 62.9906 36.1083 62.9906 38.4055C62.9906 40.7026 63.9031 42.9056 65.5274 44.5299C67.1517 46.1543 69.3548 47.0668 71.6519 47.0668C73.949 47.0668 76.1521 46.1543 77.7764 44.5299C79.4007 42.9056 80.3132 40.7026 80.3132 38.4055ZM66.1402 38.4055C66.1402 37.6817 66.2827 36.9649 66.5597 36.2962C66.8367 35.6275 67.2427 35.0199 67.7545 34.5081C68.2663 33.9963 68.8739 33.5903 69.5427 33.3133C70.2114 33.0363 70.9281 32.8937 71.6519 32.8937C72.3757 32.8937 73.0925 33.0363 73.7612 33.3133C74.4299 33.5903 75.0375 33.9963 75.5493 34.5081C76.0611 35.0199 76.4671 35.6275 76.7441 36.2962C77.0211 36.9649 77.1637 37.6817 77.1637 38.4055C77.1637 39.8673 76.583 41.2692 75.5493 42.3029C74.5157 43.3365 73.1137 43.9172 71.6519 43.9172C70.1901 43.9172 68.7882 43.3365 67.7545 42.3029C66.7209 41.2692 66.1402 39.8673 66.1402 38.4055ZM60.6284 50.2164H73.8031C73.2865 51.1927 72.9023 52.251 72.6755 53.3659H60.6284C60.2108 53.3659 59.8102 53.5318 59.5149 53.8272C59.2195 54.1225 59.0536 54.5231 59.0536 54.9407V56.5155C59.0536 60.484 62.515 64.7485 68.8047 65.7438C67.7905 66.4367 66.9465 67.3595 66.3449 68.4335C59.6993 66.6351 55.9041 61.5139 55.9041 56.5155V54.9407C55.9041 53.6877 56.4018 52.4861 57.2878 51.6001C58.1738 50.7141 59.3754 50.2164 60.6284 50.2164ZM77.57 50.2164C79.1573 48.2951 81.5605 47.0668 84.2502 47.0668C86.1364 47.0635 87.9718 47.6774 89.4766 48.8147C90.9813 49.952 92.0726 51.5504 92.584 53.3659C93.0398 54.9864 93.0141 56.7045 92.51 58.3106C92.0059 59.9167 91.0452 61.3413 89.7452 62.4106C88.4451 63.4799 86.8619 64.1477 85.1887 64.3324C83.5155 64.5171 81.8247 64.2108 80.3227 63.4509C79.1662 62.8623 78.1568 62.0214 77.3689 60.9902C76.5811 59.9591 76.0351 58.7641 75.7711 57.4936C75.5071 56.2231 75.532 54.9095 75.8439 53.6499C76.1558 52.3903 76.7436 51.2169 77.57 50.2164ZM79.2707 53.3659C78.9605 54.0203 78.7822 54.7293 78.746 55.4525C78.7099 56.1757 78.8165 56.899 79.0598 57.581C79.3031 58.2631 79.6784 58.8905 80.1642 59.4275C80.65 59.9645 81.2369 60.4005 81.8912 60.7107C82.5455 61.0209 83.2545 61.1992 83.9778 61.2354C84.701 61.2716 85.4243 61.165 86.1063 60.9217C86.7883 60.6783 87.4157 60.3031 87.9527 59.8173C88.4897 59.3314 88.9258 58.7446 89.236 58.0903C89.8625 56.7684 89.9382 55.2518 89.4465 53.8741C88.9547 52.4964 87.9359 51.3704 86.614 50.7439C85.2921 50.1174 83.7754 50.0417 82.3977 50.5334C81.02 51.0252 79.8972 52.044 79.2707 53.3659ZM102.156 68.4335C101.556 67.3589 100.713 66.439 99.6957 65.7469C105.982 64.7485 109.447 60.4808 109.447 56.5155V54.9407C109.447 54.5231 109.281 54.1225 108.986 53.8272C108.69 53.5318 108.29 53.3659 107.872 53.3659H95.8249C95.6024 52.2678 95.2237 51.2072 94.7005 50.2164H107.872C109.125 50.2164 110.327 50.7141 111.213 51.6001C112.099 52.4861 112.596 53.6877 112.596 54.9407V56.5155C112.596 61.5139 108.798 66.6319 102.156 68.4335ZM98.3823 68.7075C97.5227 67.9529 96.4175 67.5375 95.2737 67.539H73.2267C72.6058 67.5373 71.9907 67.6584 71.4168 67.8952C70.8429 68.1321 70.3214 68.48 69.8824 68.919C69.4433 69.3581 69.0954 69.8795 68.8586 70.4535C68.6217 71.0274 68.5007 71.6425 68.5023 72.2634V73.8382C68.5023 80.046 74.3605 86.4364 84.2502 86.4364C94.1399 86.4364 99.9981 80.046 99.9981 73.8382V72.2634C99.9981 70.8461 99.3745 69.5736 98.3823 68.7044V68.7075ZM71.6519 72.2634C71.6519 71.8457 71.8178 71.4452 72.1132 71.1498C72.4085 70.8545 72.809 70.6886 73.2267 70.6886H95.2737C95.6914 70.6886 96.0919 70.8545 96.3873 71.1498C96.6826 71.4452 96.8485 71.8457 96.8485 72.2634V73.8382C96.8485 78.3672 92.3383 83.2869 84.2502 83.2869C76.1621 83.2869 71.6519 78.3672 71.6519 73.8382V72.2634ZM96.8485 29.7441C99.1456 29.7441 101.349 30.6567 102.973 32.281C104.597 33.9053 105.51 36.1083 105.51 38.4055C105.51 40.7026 104.597 42.9056 102.973 44.5299C101.349 46.1543 99.1456 47.0668 96.8485 47.0668C94.5514 47.0668 92.3483 46.1543 90.724 44.5299C89.0997 42.9056 88.1872 40.7026 88.1872 38.4055C88.1872 36.1083 89.0997 33.9053 90.724 32.281C92.3483 30.6567 94.5514 29.7441 96.8485 29.7441ZM96.8485 32.8937C95.3867 32.8937 93.9848 33.4744 92.9511 34.5081C91.9174 35.5417 91.3367 36.9437 91.3367 38.4055C91.3367 39.8673 91.9174 41.2692 92.9511 42.3029C93.9848 43.3365 95.3867 43.9172 96.8485 43.9172C98.3103 43.9172 99.7122 43.3365 100.746 42.3029C101.78 41.2692 102.36 39.8673 102.36 38.4055C102.36 36.9437 101.78 35.5417 100.746 34.5081C99.7122 33.4744 98.3103 32.8937 96.8485 32.8937Z"/>
</mask>
<path d="M80.3132 38.4055C80.3132 36.1083 79.4007 33.9053 77.7764 32.281C76.1521 30.6567 73.949 29.7441 71.6519 29.7441C69.3548 29.7441 67.1517 30.6567 65.5274 32.281C63.9031 33.9053 62.9906 36.1083 62.9906 38.4055C62.9906 40.7026 63.9031 42.9056 65.5274 44.5299C67.1517 46.1543 69.3548 47.0668 71.6519 47.0668C73.949 47.0668 76.1521 46.1543 77.7764 44.5299C79.4007 42.9056 80.3132 40.7026 80.3132 38.4055ZM66.1402 38.4055C66.1402 37.6817 66.2827 36.9649 66.5597 36.2962C66.8367 35.6275 67.2427 35.0199 67.7545 34.5081C68.2663 33.9963 68.8739 33.5903 69.5427 33.3133C70.2114 33.0363 70.9281 32.8937 71.6519 32.8937C72.3757 32.8937 73.0925 33.0363 73.7612 33.3133C74.4299 33.5903 75.0375 33.9963 75.5493 34.5081C76.0611 35.0199 76.4671 35.6275 76.7441 36.2962C77.0211 36.9649 77.1637 37.6817 77.1637 38.4055C77.1637 39.8673 76.583 41.2692 75.5493 42.3029C74.5157 43.3365 73.1137 43.9172 71.6519 43.9172C70.1901 43.9172 68.7882 43.3365 67.7545 42.3029C66.7209 41.2692 66.1402 39.8673 66.1402 38.4055ZM60.6284 50.2164H73.8031C73.2865 51.1927 72.9023 52.251 72.6755 53.3659H60.6284C60.2108 53.3659 59.8102 53.5318 59.5149 53.8272C59.2195 54.1225 59.0536 54.5231 59.0536 54.9407V56.5155C59.0536 60.484 62.515 64.7485 68.8047 65.7438C67.7905 66.4367 66.9465 67.3595 66.3449 68.4335C59.6993 66.6351 55.9041 61.5139 55.9041 56.5155V54.9407C55.9041 53.6877 56.4018 52.4861 57.2878 51.6001C58.1738 50.7141 59.3754 50.2164 60.6284 50.2164ZM77.57 50.2164C79.1573 48.2951 81.5605 47.0668 84.2502 47.0668C86.1364 47.0635 87.9718 47.6774 89.4766 48.8147C90.9813 49.952 92.0726 51.5504 92.584 53.3659C93.0398 54.9864 93.0141 56.7045 92.51 58.3106C92.0059 59.9167 91.0452 61.3413 89.7452 62.4106C88.4451 63.4799 86.8619 64.1477 85.1887 64.3324C83.5155 64.5171 81.8247 64.2108 80.3227 63.4509C79.1662 62.8623 78.1568 62.0214 77.3689 60.9902C76.5811 59.9591 76.0351 58.7641 75.7711 57.4936C75.5071 56.2231 75.532 54.9095 75.8439 53.6499C76.1558 52.3903 76.7436 51.2169 77.57 50.2164ZM79.2707 53.3659C78.9605 54.0203 78.7822 54.7293 78.746 55.4525C78.7099 56.1757 78.8165 56.899 79.0598 57.581C79.3031 58.2631 79.6784 58.8905 80.1642 59.4275C80.65 59.9645 81.2369 60.4005 81.8912 60.7107C82.5455 61.0209 83.2545 61.1992 83.9778 61.2354C84.701 61.2716 85.4243 61.165 86.1063 60.9217C86.7883 60.6783 87.4157 60.3031 87.9527 59.8173C88.4897 59.3314 88.9258 58.7446 89.236 58.0903C89.8625 56.7684 89.9382 55.2518 89.4465 53.8741C88.9547 52.4964 87.9359 51.3704 86.614 50.7439C85.2921 50.1174 83.7754 50.0417 82.3977 50.5334C81.02 51.0252 79.8972 52.044 79.2707 53.3659ZM102.156 68.4335C101.556 67.3589 100.713 66.439 99.6957 65.7469C105.982 64.7485 109.447 60.4808 109.447 56.5155V54.9407C109.447 54.5231 109.281 54.1225 108.986 53.8272C108.69 53.5318 108.29 53.3659 107.872 53.3659H95.8249C95.6024 52.2678 95.2237 51.2072 94.7005 50.2164H107.872C109.125 50.2164 110.327 50.7141 111.213 51.6001C112.099 52.4861 112.596 53.6877 112.596 54.9407V56.5155C112.596 61.5139 108.798 66.6319 102.156 68.4335ZM98.3823 68.7075C97.5227 67.9529 96.4175 67.5375 95.2737 67.539H73.2267C72.6058 67.5373 71.9907 67.6584 71.4168 67.8952C70.8429 68.1321 70.3214 68.48 69.8824 68.919C69.4433 69.3581 69.0954 69.8795 68.8586 70.4535C68.6217 71.0274 68.5007 71.6425 68.5023 72.2634V73.8382C68.5023 80.046 74.3605 86.4364 84.2502 86.4364C94.1399 86.4364 99.9981 80.046 99.9981 73.8382V72.2634C99.9981 70.8461 99.3745 69.5736 98.3823 68.7044V68.7075ZM71.6519 72.2634C71.6519 71.8457 71.8178 71.4452 72.1132 71.1498C72.4085 70.8545 72.809 70.6886 73.2267 70.6886H95.2737C95.6914 70.6886 96.0919 70.8545 96.3873 71.1498C96.6826 71.4452 96.8485 71.8457 96.8485 72.2634V73.8382C96.8485 78.3672 92.3383 83.2869 84.2502 83.2869C76.1621 83.2869 71.6519 78.3672 71.6519 73.8382V72.2634ZM96.8485 29.7441C99.1456 29.7441 101.349 30.6567 102.973 32.281C104.597 33.9053 105.51 36.1083 105.51 38.4055C105.51 40.7026 104.597 42.9056 102.973 44.5299C101.349 46.1543 99.1456 47.0668 96.8485 47.0668C94.5514 47.0668 92.3483 46.1543 90.724 44.5299C89.0997 42.9056 88.1872 40.7026 88.1872 38.4055C88.1872 36.1083 89.0997 33.9053 90.724 32.281C92.3483 30.6567 94.5514 29.7441 96.8485 29.7441ZM96.8485 32.8937C95.3867 32.8937 93.9848 33.4744 92.9511 34.5081C91.9174 35.5417 91.3367 36.9437 91.3367 38.4055C91.3367 39.8673 91.9174 41.2692 92.9511 42.3029C93.9848 43.3365 95.3867 43.9172 96.8485 43.9172C98.3103 43.9172 99.7122 43.3365 100.746 42.3029C101.78 41.2692 102.36 39.8673 102.36 38.4055C102.36 36.9437 101.78 35.5417 100.746 34.5081C99.7122 33.4744 98.3103 32.8937 96.8485 32.8937Z" fill="white" stroke="white" stroke-width="8.58974" mask="url(#path-6-inside-1_0_423)"/>
</svg>
