<svg width="39" height="40" viewBox="0 0 39 40" fill="none" xmlns="http://www.w3.org/2000/svg">
<ellipse cx="19.1358" cy="20" rx="19.1358" ry="20" fill="#441E03"/>
<path d="M27.6197 15.6901C27.0469 15.9562 26.4424 16.1225 25.806 16.2222C26.4424 15.8232 26.9515 15.1913 27.1742 14.4264C26.5697 14.7922 25.9015 15.0583 25.1696 15.2246C24.5969 14.5927 23.7696 14.1936 22.8787 14.1936C21.1605 14.1936 19.7604 15.6569 19.7604 17.4527C19.7604 17.7187 19.7923 17.9515 19.8559 18.1843C17.2786 18.0513 14.9558 16.7543 13.3967 14.759C13.1421 15.2578 12.9831 15.7899 12.9831 16.3885C12.9831 17.5192 13.524 18.5169 14.3831 19.1155C13.874 19.0822 13.3967 18.9492 12.9512 18.7164V18.7497C12.9512 20.3459 14.0331 21.6762 15.4649 21.9755C15.2104 22.042 14.924 22.0752 14.6376 22.0752C14.4467 22.0752 14.224 22.042 14.0331 22.0087C14.4467 23.3057 15.5922 24.2701 16.9604 24.2701C15.8786 25.1348 14.5422 25.6669 13.0785 25.6669C12.824 25.6669 12.5694 25.6669 12.3467 25.6336C13.7467 26.5648 15.3695 27.0969 17.1513 27.0969C22.9105 27.0969 26.0606 22.1085 26.0606 17.7853C26.0606 17.6522 26.0606 17.486 26.0606 17.3529C26.6651 16.9206 27.206 16.3553 27.6197 15.6901Z" fill="white"/>
</svg>
