<svg width="39" height="40" viewBox="0 0 39 40" fill="none" xmlns="http://www.w3.org/2000/svg">
<ellipse cx="19.6788" cy="20" rx="19.1358" ry="20" fill="#441E03"/>
<path d="M19.6792 12.0674C22.1514 12.0674 22.4442 12.0771 23.4208 12.1237C24.008 12.1312 24.5896 12.2439 25.1404 12.4568C25.5398 12.6178 25.9025 12.8644 26.2052 13.1808C26.5079 13.4972 26.7438 13.8763 26.8979 14.2937C27.1017 14.8693 27.2095 15.4772 27.2167 16.0909C27.2608 17.1117 27.2705 17.4177 27.2705 20.0015C27.2705 22.5854 27.2612 22.8914 27.2167 23.9121C27.2095 24.5259 27.1017 25.1338 26.8979 25.7094C26.7438 26.1268 26.5079 26.5059 26.2052 26.8223C25.9025 27.1386 25.5398 27.3853 25.1404 27.5462C24.5896 27.7592 24.008 27.8719 23.4208 27.8794C22.4446 27.9255 22.1518 27.9356 19.6792 27.9356C17.2065 27.9356 16.9137 27.926 15.9376 27.8794C15.3504 27.8719 14.7687 27.7592 14.218 27.5462C13.8186 27.3853 13.4559 27.1386 13.1532 26.8223C12.8505 26.5059 12.6145 26.1268 12.4605 25.7094C12.2567 25.1338 12.1489 24.5259 12.1417 23.9121C12.0976 22.8914 12.0879 22.5854 12.0879 20.0015C12.0879 17.4177 12.0972 17.1117 12.1417 16.0909C12.1489 15.4772 12.2567 14.8693 12.4605 14.2937C12.6145 13.8763 12.8505 13.4972 13.1532 13.1808C13.4559 12.8644 13.8186 12.6178 14.218 12.4568C14.7687 12.2439 15.3504 12.1312 15.9376 12.1237C16.9142 12.0776 17.207 12.0674 19.6792 12.0674ZM19.6792 10.3237C17.166 10.3237 16.8494 10.3347 15.8617 10.3817C15.0932 10.3977 14.3329 10.5498 13.613 10.8315C12.9955 11.0747 12.4362 11.4557 11.9742 11.9481C11.5026 12.4312 11.1377 13.0161 10.9049 13.6619C10.6354 14.4143 10.4899 15.2089 10.4746 16.0121C10.4305 17.0435 10.4199 17.3744 10.4199 20.0011C10.4199 22.6278 10.4305 22.9587 10.4755 23.9909C10.4908 24.7942 10.6363 25.5888 10.9058 26.3412C11.1384 26.9869 11.503 27.5718 11.9742 28.055C12.4365 28.5475 12.9961 28.9285 13.6139 29.1716C14.3338 29.4533 15.0941 29.6054 15.8626 29.6214C16.8503 29.6674 17.1655 29.6794 19.6801 29.6794C22.1946 29.6794 22.5099 29.6684 23.4975 29.6214C24.266 29.6054 25.0264 29.4533 25.7462 29.1716C26.3611 28.9225 26.9195 28.542 27.3856 28.0545C27.8518 27.5669 28.2155 26.9831 28.4534 26.3403C28.723 25.5879 28.8685 24.7932 28.8838 23.99C28.9279 22.9587 28.9384 22.6278 28.9384 20.0011C28.9384 17.3744 28.9279 17.0435 28.8829 16.0112C28.8676 15.208 28.7221 14.4133 28.4525 13.661C28.22 13.0153 27.8554 12.4304 27.3842 11.9472C26.9219 11.4547 26.3623 11.0736 25.7444 10.8306C25.0246 10.5489 24.2643 10.3968 23.4958 10.3808C22.509 10.3347 22.1924 10.3237 19.6792 10.3237Z" fill="white"/>
<path d="M19.6816 15.0334C18.7412 15.0334 17.8219 15.3249 17.04 15.8709C16.258 16.417 15.6486 17.1932 15.2887 18.1012C14.9288 19.0093 14.8347 20.0085 15.0181 20.9725C15.2016 21.9365 15.6544 22.822 16.3194 23.517C16.9844 24.212 17.8316 24.6853 18.754 24.8771C19.6763 25.0689 20.6324 24.9704 21.5012 24.5943C22.37 24.2182 23.1127 23.5812 23.6351 22.764C24.1576 21.9467 24.4365 20.9859 24.4365 20.003C24.4365 18.685 23.9355 17.421 23.0438 16.489C22.1521 15.557 20.9427 15.0334 19.6816 15.0334ZM19.6816 23.2288C19.0712 23.2288 18.4744 23.0396 17.9669 22.6852C17.4593 22.3307 17.0637 21.8269 16.8301 21.2375C16.5965 20.648 16.5354 19.9994 16.6545 19.3737C16.7736 18.7479 17.0675 18.1731 17.4992 17.722C17.9308 17.2709 18.4808 16.9636 19.0795 16.8392C19.6782 16.7147 20.2988 16.7786 20.8627 17.0227C21.4267 17.2669 21.9087 17.6804 22.2479 18.2108C22.587 18.7413 22.768 19.365 22.768 20.003C22.768 20.8585 22.4429 21.679 21.864 22.284C21.2852 22.8889 20.5002 23.2288 19.6816 23.2288Z" fill="white"/>
<path d="M24.6228 15.9972C25.2365 15.9972 25.7339 15.4772 25.7339 14.8359C25.7339 14.1945 25.2365 13.6746 24.6228 13.6746C24.0092 13.6746 23.5117 14.1945 23.5117 14.8359C23.5117 15.4772 24.0092 15.9972 24.6228 15.9972Z" fill="white"/>
</svg>
