<svg width="50" height="51" viewBox="0 0 50 51" fill="none" xmlns="http://www.w3.org/2000/svg">
<rect y="0.5" width="50" height="50" rx="25" fill="#FFC244"/>
<path d="M25 31.0089V32.8605" stroke="black" stroke-width="1.71429" stroke-linecap="round" stroke-linejoin="round"/>
<path d="M25 21.8237V23.5471" stroke="black" stroke-width="1.71429" stroke-linecap="round" stroke-linejoin="round"/>
<path d="M25 37.37C31.4167 37.37 36 35.0967 36 30.0367C36 24.5367 33.25 20.87 27.75 18.12L29.9133 15.3333C30.0232 15.1505 30.0828 14.9419 30.0861 14.7286C30.0894 14.5153 30.0362 14.3049 29.932 14.1187C29.8278 13.9326 29.6762 13.7774 29.4926 13.6687C29.309 13.56 29.1 13.5018 28.8867 13.5H21.1133C20.9 13.5018 20.691 13.56 20.5074 13.6687C20.3238 13.7774 20.1722 13.9326 20.068 14.1187C19.9638 14.3049 19.9106 14.5153 19.9139 14.7286C19.9172 14.9419 19.9768 15.1505 20.0867 15.3333L22.25 18.1383C16.75 20.9067 14 24.5733 14 30.0733C14 35.0967 18.5833 37.37 25 37.37Z" stroke="black" stroke-width="1.71429" stroke-linecap="round" stroke-linejoin="round"/>
<path d="M23.1667 30.165C23.3904 30.4305 23.6719 30.6413 23.9897 30.7811C24.3075 30.9209 24.6531 30.9861 25 30.9717C25.5302 31.0078 26.0538 30.837 26.4607 30.4951C26.8675 30.1532 27.126 29.6668 27.1817 29.1383C27.126 28.6098 26.8675 28.1235 26.4607 27.7816C26.0538 27.4397 25.5302 27.2688 25 27.305C24.4698 27.3411 23.9462 27.1703 23.5394 26.8284C23.1325 26.4865 22.8741 26.0002 22.8184 25.4717C22.8696 24.9413 23.1268 24.4522 23.5347 24.1094C23.9427 23.7666 24.4688 23.5975 25 23.6383C25.3408 23.6175 25.682 23.6724 25.999 23.7992C26.316 23.926 26.601 24.1215 26.8334 24.3717" stroke="black" stroke-width="1.71429" stroke-linecap="round" stroke-linejoin="round"/>
</svg>
