<svg width="50" height="51" viewBox="0 0 50 51" fill="none" xmlns="http://www.w3.org/2000/svg">
<rect y="0.5" width="50" height="50" rx="25" fill="#FFC244"/>
<path d="M23.621 38.126L23.6384 38.1414L23.6566 38.1559C23.8517 38.312 24.0704 38.4317 24.3088 38.5112L24.625 37.5625L24.3088 38.5112C24.546 38.5903 24.7893 38.625 25.0312 38.625C25.2698 38.625 25.5055 38.5848 25.7324 38.5023L25.7324 38.5023C25.9585 38.4201 26.1622 38.3008 26.3434 38.1559L26.3616 38.1414L26.379 38.126C29.5213 35.3634 31.914 32.766 33.5218 30.3325C35.1315 27.8963 36 25.5287 36 23.25C36 19.8896 34.9082 17.1175 32.6623 15.0462C30.4741 13.028 27.9063 12 25 12C22.0937 12 19.5259 13.028 17.3377 15.0462C15.0918 17.1175 14 19.8896 14 23.25C14 25.5287 14.8685 27.8963 16.4782 30.3325C18.086 32.766 20.4787 35.3634 23.621 38.126ZM25.8398 23.8398C25.6003 24.0793 25.339 24.1875 25 24.1875C24.661 24.1875 24.3997 24.0793 24.1602 23.8398C23.9207 23.6003 23.8125 23.339 23.8125 23C23.8125 22.661 23.9207 22.3997 24.1602 22.1602C24.3997 21.9207 24.661 21.8125 25 21.8125C25.339 21.8125 25.6003 21.9207 25.8398 22.1602C26.0793 22.3997 26.1875 22.661 26.1875 23C26.1875 23.339 26.0793 23.6003 25.8398 23.8398Z" fill="#FFC244" stroke="#2F3934" stroke-width="2"/>
</svg>
