<svg width="51" height="51" viewBox="0 0 51 51" fill="none" xmlns="http://www.w3.org/2000/svg">
<rect x="0.5" y="0.5" width="50" height="50" rx="25" fill="#FFC244"/>
<path d="M22.6152 22.6152C24.7181 22.6152 26.4228 20.9104 26.4228 18.8076C26.4228 16.7047 24.7181 15 22.6152 15C20.5123 15 18.8076 16.7047 18.8076 18.8076C18.8076 20.9104 20.5123 22.6152 22.6152 22.6152Z" stroke="black" stroke-width="1.71429" stroke-linecap="round" stroke-linejoin="round"/>
<path d="M30.2303 35.3073H15V33.615C15 31.5954 15.8023 29.6584 17.2304 28.2303C18.6585 26.8022 20.5955 25.9999 22.6152 25.9999C24.6348 25.9999 26.5718 26.8022 27.9999 28.2303C29.428 29.6584 30.2303 31.5954 30.2303 33.615V35.3073Z" stroke="black" stroke-width="1.71429" stroke-linecap="round" stroke-linejoin="round"/>
<path d="M29.3838 15C30.3936 15 31.3621 15.4012 32.0762 16.1152C32.7902 16.8293 33.1914 17.7977 33.1914 18.8076C33.1914 19.8174 32.7902 20.7859 32.0762 21.4999C31.3621 22.214 30.3936 22.6152 29.3838 22.6152" stroke="black" stroke-width="1.71429" stroke-linecap="round" stroke-linejoin="round"/>
<path d="M32.0928 26.3218C33.5343 26.8702 34.7753 27.8433 35.6517 29.1125C36.528 30.3816 36.9983 31.887 37.0003 33.4293V35.3077H34.4619" stroke="black" stroke-width="1.71429" stroke-linecap="round" stroke-linejoin="round"/>
</svg>
